<svg xmlns="http://www.w3.org/2000/svg"
     viewBox="0 0 64 64"
     width="64" height="64"
     shape-rendering="crispEdges" fill="#00838f">
  <rect x="22" y="2" width="2" height="2"/>
  <rect x="24" y="2" width="2" height="2"/>
  <rect x="26" y="2" width="2" height="2"/>
  <rect x="28" y="2" width="2" height="2"/>
  <rect x="32" y="2" width="2" height="2"/>
  <rect x="34" y="2" width="2" height="2"/>
  <rect x="36" y="2" width="2" height="2"/>
  <rect x="38" y="2" width="2" height="2"/>
  <rect x="40" y="2" width="2" height="2"/>
  <rect x="16" y="4" width="2" height="2"/>
  <rect x="18" y="4" width="2" height="2"/>
  <rect x="20" y="4" width="2" height="2"/>
  <rect x="24" y="4" width="2" height="2"/>
  <rect x="28" y="4" width="2" height="2"/>
  <rect x="34" y="4" width="2" height="2"/>
  <rect x="36" y="4" width="2" height="2"/>
  <rect x="42" y="4" width="2" height="2"/>
  <rect x="44" y="4" width="2" height="2"/>
  <rect x="46" y="4" width="2" height="2"/>
  <rect x="18" y="6" width="2" height="2"/>
  <rect x="20" y="6" width="2" height="2"/>
  <rect x="22" y="6" width="2" height="2"/>
  <rect x="34" y="6" width="2" height="2"/>
  <rect x="38" y="6" width="2" height="2"/>
  <rect x="40" y="6" width="2" height="2"/>
  <rect x="42" y="6" width="2" height="2"/>
  <rect x="48" y="6" width="2" height="2"/>
  <rect x="12" y="8" width="2" height="2"/>
  <rect x="14" y="8" width="2" height="2"/>
  <rect x="18" y="8" width="2" height="2"/>
  <rect x="30" y="8" width="2" height="2"/>
  <rect x="34" y="8" width="2" height="2"/>
  <rect x="46" y="8" width="2" height="2"/>
  <rect x="50" y="8" width="2" height="2"/>
  <rect x="10" y="10" width="2" height="2"/>
  <rect x="12" y="10" width="2" height="2"/>
  <rect x="14" y="10" width="2" height="2"/>
  <rect x="16" y="10" width="2" height="2"/>
  <rect x="20" y="10" width="2" height="2"/>
  <rect x="22" y="10" width="2" height="2"/>
  <rect x="24" y="10" width="2" height="2"/>
  <rect x="26" y="10" width="2" height="2"/>
  <rect x="30" y="10" width="2" height="2"/>
  <rect x="32" y="10" width="2" height="2"/>
  <rect x="34" y="10" width="2" height="2"/>
  <rect x="36" y="10" width="2" height="2"/>
  <rect x="38" y="10" width="2" height="2"/>
  <rect x="40" y="10" width="2" height="2"/>
  <rect x="42" y="10" width="2" height="2"/>
  <rect x="50" y="10" width="2" height="2"/>
  <rect x="52" y="10" width="2" height="2"/>
  <rect x="8" y="12" width="2" height="2"/>
  <rect x="18" y="12" width="2" height="2"/>
  <rect x="44" y="12" width="2" height="2"/>
  <rect x="46" y="12" width="2" height="2"/>
  <rect x="50" y="12" width="2" height="2"/>
  <rect x="54" y="12" width="2" height="2"/>
  <rect x="6" y="14" width="2" height="2"/>
  <rect x="10" y="14" width="2" height="2"/>
  <rect x="14" y="14" width="2" height="2"/>
  <rect x="18" y="14" width="2" height="2"/>
  <rect x="46" y="14" width="2" height="2"/>
  <rect x="50" y="14" width="2" height="2"/>
  <rect x="56" y="14" width="2" height="2"/>
  <rect x="4" y="16" width="2" height="2"/>
  <rect x="6" y="16" width="2" height="2"/>
  <rect x="10" y="16" width="2" height="2"/>
  <rect x="18" y="16" width="2" height="2"/>
  <rect x="46" y="16" width="2" height="2"/>
  <rect x="50" y="16" width="2" height="2"/>
  <rect x="52" y="16" width="2" height="2"/>
  <rect x="54" y="16" width="2" height="2"/>
  <rect x="58" y="16" width="2" height="2"/>
  <rect x="4" y="18" width="2" height="2"/>
  <rect x="10" y="18" width="2" height="2"/>
  <rect x="12" y="18" width="2" height="2"/>
  <rect x="14" y="18" width="2" height="2"/>
  <rect x="18" y="18" width="2" height="2"/>
  <rect x="44" y="18" width="2" height="2"/>
  <rect x="48" y="18" width="2" height="2"/>
  <rect x="52" y="18" width="2" height="2"/>
  <rect x="6" y="20" width="2" height="2"/>
  <rect x="12" y="20" width="2" height="2"/>
  <rect x="28" y="20" width="2" height="2"/>
  <rect x="30" y="20" width="2" height="2"/>
  <rect x="32" y="20" width="2" height="2"/>
  <rect x="38" y="20" width="2" height="2"/>
  <rect x="40" y="20" width="2" height="2"/>
  <rect x="44" y="20" width="2" height="2"/>
  <rect x="48" y="20" width="2" height="2"/>
  <rect x="52" y="20" width="2" height="2"/>
  <rect x="56" y="20" width="2" height="2"/>
  <rect x="58" y="20" width="2" height="2"/>
  <rect x="2" y="22" width="2" height="2"/>
  <rect x="10" y="22" width="2" height="2"/>
  <rect x="12" y="22" width="2" height="2"/>
  <rect x="14" y="22" width="2" height="2"/>
  <rect x="16" y="22" width="2" height="2"/>
  <rect x="18" y="22" width="2" height="2"/>
  <rect x="28" y="22" width="2" height="2"/>
  <rect x="32" y="22" width="2" height="2"/>
  <rect x="34" y="22" width="2" height="2"/>
  <rect x="44" y="22" width="2" height="2"/>
  <rect x="46" y="22" width="2" height="2"/>
  <rect x="48" y="22" width="2" height="2"/>
  <rect x="52" y="22" width="2" height="2"/>
  <rect x="60" y="22" width="2" height="2"/>
  <rect x="2" y="24" width="2" height="2"/>
  <rect x="4" y="24" width="2" height="2"/>
  <rect x="6" y="24" width="2" height="2"/>
  <rect x="10" y="24" width="2" height="2"/>
  <rect x="18" y="24" width="2" height="2"/>
  <rect x="28" y="24" width="2" height="2"/>
  <rect x="38" y="24" width="2" height="2"/>
  <rect x="42" y="24" width="2" height="2"/>
  <rect x="50" y="24" width="2" height="2"/>
  <rect x="58" y="24" width="2" height="2"/>
  <rect x="60" y="24" width="2" height="2"/>
  <rect x="6" y="26" width="2" height="2"/>
  <rect x="10" y="26" width="2" height="2"/>
  <rect x="12" y="26" width="2" height="2"/>
  <rect x="14" y="26" width="2" height="2"/>
  <rect x="16" y="26" width="2" height="2"/>
  <rect x="28" y="26" width="2" height="2"/>
  <rect x="30" y="26" width="2" height="2"/>
  <rect x="32" y="26" width="2" height="2"/>
  <rect x="34" y="26" width="2" height="2"/>
  <rect x="38" y="26" width="2" height="2"/>
  <rect x="44" y="26" width="2" height="2"/>
  <rect x="48" y="26" width="2" height="2"/>
  <rect x="50" y="26" width="2" height="2"/>
  <rect x="54" y="26" width="2" height="2"/>
  <rect x="2" y="28" width="2" height="2"/>
  <rect x="6" y="28" width="2" height="2"/>
  <rect x="8" y="28" width="2" height="2"/>
  <rect x="12" y="28" width="2" height="2"/>
  <rect x="42" y="28" width="2" height="2"/>
  <rect x="48" y="28" width="2" height="2"/>
  <rect x="50" y="28" width="2" height="2"/>
  <rect x="52" y="28" width="2" height="2"/>
  <rect x="54" y="28" width="2" height="2"/>
  <rect x="58" y="28" width="2" height="2"/>
  <rect x="60" y="28" width="2" height="2"/>
  <rect x="2" y="30" width="2" height="2"/>
  <rect x="10" y="30" width="2" height="2"/>
  <rect x="14" y="30" width="2" height="2"/>
  <rect x="18" y="30" width="2" height="2"/>
  <rect x="40" y="30" width="2" height="2"/>
  <rect x="42" y="30" width="2" height="2"/>
  <rect x="46" y="30" width="2" height="2"/>
  <rect x="54" y="30" width="2" height="2"/>
  <rect x="2" y="32" width="2" height="2"/>
  <rect x="4" y="32" width="2" height="2"/>
  <rect x="6" y="32" width="2" height="2"/>
  <rect x="10" y="32" width="2" height="2"/>
  <rect x="12" y="32" width="2" height="2"/>
  <rect x="14" y="32" width="2" height="2"/>
  <rect x="18" y="32" width="2" height="2"/>
  <rect x="40" y="32" width="2" height="2"/>
  <rect x="42" y="32" width="2" height="2"/>
  <rect x="44" y="32" width="2" height="2"/>
  <rect x="52" y="32" width="2" height="2"/>
  <rect x="60" y="32" width="2" height="2"/>
  <rect x="2" y="34" width="2" height="2"/>
  <rect x="6" y="34" width="2" height="2"/>
  <rect x="18" y="34" width="2" height="2"/>
  <rect x="40" y="34" width="2" height="2"/>
  <rect x="46" y="34" width="2" height="2"/>
  <rect x="50" y="34" width="2" height="2"/>
  <rect x="56" y="34" width="2" height="2"/>
  <rect x="58" y="34" width="2" height="2"/>
  <rect x="2" y="36" width="2" height="2"/>
  <rect x="8" y="36" width="2" height="2"/>
  <rect x="12" y="36" width="2" height="2"/>
  <rect x="14" y="36" width="2" height="2"/>
  <rect x="16" y="36" width="2" height="2"/>
  <rect x="18" y="36" width="2" height="2"/>
  <rect x="28" y="36" width="2" height="2"/>
  <rect x="30" y="36" width="2" height="2"/>
  <rect x="34" y="36" width="2" height="2"/>
  <rect x="38" y="36" width="2" height="2"/>
  <rect x="46" y="36" width="2" height="2"/>
  <rect x="48" y="36" width="2" height="2"/>
  <rect x="52" y="36" width="2" height="2"/>
  <rect x="54" y="36" width="2" height="2"/>
  <rect x="60" y="36" width="2" height="2"/>
  <rect x="6" y="38" width="2" height="2"/>
  <rect x="8" y="38" width="2" height="2"/>
  <rect x="16" y="38" width="2" height="2"/>
  <rect x="18" y="38" width="2" height="2"/>
  <rect x="28" y="38" width="2" height="2"/>
  <rect x="34" y="38" width="2" height="2"/>
  <rect x="38" y="38" width="2" height="2"/>
  <rect x="42" y="38" width="2" height="2"/>
  <rect x="48" y="38" width="2" height="2"/>
  <rect x="52" y="38" width="2" height="2"/>
  <rect x="58" y="38" width="2" height="2"/>
  <rect x="60" y="38" width="2" height="2"/>
  <rect x="2" y="40" width="2" height="2"/>
  <rect x="8" y="40" width="2" height="2"/>
  <rect x="16" y="40" width="2" height="2"/>
  <rect x="28" y="40" width="2" height="2"/>
  <rect x="34" y="40" width="2" height="2"/>
  <rect x="40" y="40" width="2" height="2"/>
  <rect x="46" y="40" width="2" height="2"/>
  <rect x="52" y="40" width="2" height="2"/>
  <rect x="56" y="40" width="2" height="2"/>
  <rect x="60" y="40" width="2" height="2"/>
  <rect x="4" y="42" width="2" height="2"/>
  <rect x="6" y="42" width="2" height="2"/>
  <rect x="8" y="42" width="2" height="2"/>
  <rect x="14" y="42" width="2" height="2"/>
  <rect x="18" y="42" width="2" height="2"/>
  <rect x="28" y="42" width="2" height="2"/>
  <rect x="32" y="42" width="2" height="2"/>
  <rect x="34" y="42" width="2" height="2"/>
  <rect x="42" y="42" width="2" height="2"/>
  <rect x="48" y="42" width="2" height="2"/>
  <rect x="56" y="42" width="2" height="2"/>
  <rect x="58" y="42" width="2" height="2"/>
  <rect x="4" y="44" width="2" height="2"/>
  <rect x="8" y="44" width="2" height="2"/>
  <rect x="10" y="44" width="2" height="2"/>
  <rect x="16" y="44" width="2" height="2"/>
  <rect x="18" y="44" width="2" height="2"/>
  <rect x="28" y="44" width="2" height="2"/>
  <rect x="30" y="44" width="2" height="2"/>
  <rect x="36" y="44" width="2" height="2"/>
  <rect x="38" y="44" width="2" height="2"/>
  <rect x="40" y="44" width="2" height="2"/>
  <rect x="44" y="44" width="2" height="2"/>
  <rect x="46" y="44" width="2" height="2"/>
  <rect x="50" y="44" width="2" height="2"/>
  <rect x="54" y="44" width="2" height="2"/>
  <rect x="10" y="46" width="2" height="2"/>
  <rect x="18" y="46" width="2" height="2"/>
  <rect x="32" y="46" width="2" height="2"/>
  <rect x="36" y="46" width="2" height="2"/>
  <rect x="42" y="46" width="2" height="2"/>
  <rect x="50" y="46" width="2" height="2"/>
  <rect x="54" y="46" width="2" height="2"/>
  <rect x="56" y="46" width="2" height="2"/>
  <rect x="58" y="46" width="2" height="2"/>
  <rect x="6" y="48" width="2" height="2"/>
  <rect x="8" y="48" width="2" height="2"/>
  <rect x="12" y="48" width="2" height="2"/>
  <rect x="14" y="48" width="2" height="2"/>
  <rect x="18" y="48" width="2" height="2"/>
  <rect x="28" y="48" width="2" height="2"/>
  <rect x="36" y="48" width="2" height="2"/>
  <rect x="40" y="48" width="2" height="2"/>
  <rect x="42" y="48" width="2" height="2"/>
  <rect x="46" y="48" width="2" height="2"/>
  <rect x="48" y="48" width="2" height="2"/>
  <rect x="50" y="48" width="2" height="2"/>
  <rect x="52" y="48" width="2" height="2"/>
  <rect x="56" y="48" width="2" height="2"/>
  <rect x="8" y="50" width="2" height="2"/>
  <rect x="12" y="50" width="2" height="2"/>
  <rect x="18" y="50" width="2" height="2"/>
  <rect x="28" y="50" width="2" height="2"/>
  <rect x="36" y="50" width="2" height="2"/>
  <rect x="40" y="50" width="2" height="2"/>
  <rect x="42" y="50" width="2" height="2"/>
  <rect x="48" y="50" width="2" height="2"/>
  <rect x="52" y="50" width="2" height="2"/>
  <rect x="54" y="50" width="2" height="2"/>
  <rect x="10" y="52" width="2" height="2"/>
  <rect x="16" y="52" width="2" height="2"/>
  <rect x="20" y="52" width="2" height="2"/>
  <rect x="22" y="52" width="2" height="2"/>
  <rect x="24" y="52" width="2" height="2"/>
  <rect x="26" y="52" width="2" height="2"/>
  <rect x="30" y="52" width="2" height="2"/>
  <rect x="34" y="52" width="2" height="2"/>
  <rect x="36" y="52" width="2" height="2"/>
  <rect x="42" y="52" width="2" height="2"/>
  <rect x="50" y="52" width="2" height="2"/>
  <rect x="52" y="52" width="2" height="2"/>
  <rect x="16" y="54" width="2" height="2"/>
  <rect x="18" y="54" width="2" height="2"/>
  <rect x="24" y="54" width="2" height="2"/>
  <rect x="26" y="54" width="2" height="2"/>
  <rect x="28" y="54" width="2" height="2"/>
  <rect x="30" y="54" width="2" height="2"/>
  <rect x="32" y="54" width="2" height="2"/>
  <rect x="38" y="54" width="2" height="2"/>
  <rect x="40" y="54" width="2" height="2"/>
  <rect x="44" y="54" width="2" height="2"/>
  <rect x="48" y="54" width="2" height="2"/>
  <rect x="50" y="54" width="2" height="2"/>
  <rect x="20" y="56" width="2" height="2"/>
  <rect x="22" y="56" width="2" height="2"/>
  <rect x="24" y="56" width="2" height="2"/>
  <rect x="26" y="56" width="2" height="2"/>
  <rect x="32" y="56" width="2" height="2"/>
  <rect x="34" y="56" width="2" height="2"/>
  <rect x="36" y="56" width="2" height="2"/>
  <rect x="44" y="56" width="2" height="2"/>
  <rect x="48" y="56" width="2" height="2"/>
  <rect x="18" y="58" width="2" height="2"/>
  <rect x="20" y="58" width="2" height="2"/>
  <rect x="24" y="58" width="2" height="2"/>
  <rect x="28" y="58" width="2" height="2"/>
  <rect x="30" y="58" width="2" height="2"/>
  <rect x="40" y="58" width="2" height="2"/>
  <rect x="42" y="58" width="2" height="2"/>
  <rect x="46" y="58" width="2" height="2"/>
  <rect x="22" y="60" width="2" height="2"/>
  <rect x="24" y="60" width="2" height="2"/>
  <rect x="28" y="60" width="2" height="2"/>
  <rect x="30" y="60" width="2" height="2"/>
  <rect x="32" y="60" width="2" height="2"/>
  <rect x="34" y="60" width="2" height="2"/>
  <rect x="36" y="60" width="2" height="2"/>
</svg>
