<svg xmlns="http://www.w3.org/2000/svg" xmlns:xlink="http://www.w3.org/1999/xlink">
  <defs />
  <g>
    <path stroke="none" fill="#FFE0B1"
      d="M188 98.15 Q185.05 105.1 177.05 108.75 166.9 93.9 148.8 89.5 143.5 88.15 137.55 87.8 L137.5 87.75 Q128.35 76.15 133.2 63.8 156.9 67.2 173.1 80.9 181.55 88.1 188 98.15" />
    <path stroke="none" fill="#FFE0B1"
      d="M40.3 31.15 Q49.9 55.65 50.9 82 L32 84.7 Q33.95 58.35 20.15 33.55 28.8 28 40.3 31.15" />
    <path stroke="none" fill="#FFE0B1"
      d="M150.7 38.25 Q151.95 42.95 149.6 47.15 147.15 51.25 142.45 52.5 L139.6 53.05 139.6 53 Q137.65 52.6 135.8 50.85 132.9 48.05 131.65 43.35 130.4 38.7 131.5 34.9 132.25 32.4 133.75 31.25 L133.75 31.15 Q135 30.4 136.45 30 141.15 28.75 145.3 31.2 149.45 33.6 150.7 38.25" />
    <path stroke="none" fill="#FFE0B1"
      d="M69.85 53.4 L69.75 52.45 69.55 48.1 69.55 47.7 Q69.65 39.4 76.65 33.45 83.8 27.45 93.9 27.45 104 27.45 111.1 33.45 118.1 39.4 118.25 47.7 L118.25 48.1 118 52.45 117.9 53.7 Q116.95 61.6 113.8 68.05 L111.1 72.65 Q104 83.2 93.9 83.2 83.8 83.2 76.65 72.65 75.1 70.4 73.9 67.95 70.7 61.4 69.85 53.4" />
    <path stroke="none" fill="#F5D29D"
      d="M69.85 53.4 Q70.7 61.4 73.9 67.95 L72.2 68.1 Q69.1 68.1 66.85 65.85 64.75 63.75 64.7 60.8 L64.7 60.4 Q64.75 57.4 66.85 55.2 68.2 53.9 69.85 53.4 M117.9 53.7 L120 55.2 Q122.25 57.45 122.25 60.6 122.25 63.7 120 65.85 117.85 68.1 114.7 68.1 L113.8 68.05 Q116.95 61.6 117.9 53.7" />
    <path stroke="none" fill="#F5D29D"
      d="M94.45 103.2 Q87.8 103.2 83.15 100 79.25 97.4 78.6 93.8 94 87.95 110.3 93.8 109.65 97.4 105.75 100 101.05 103.2 94.45 103.2" />
  </g>
</svg>