<svg xmlns="http://www.w3.org/2000/svg"
     viewBox="0 0 48 48"
     width="48" height="48"
     shape-rendering="crispEdges" fill="#26c6da">
  <rect x="17" y="1" width="1" height="1"/>
  <rect x="18" y="1" width="1" height="1"/>
  <rect x="19" y="1" width="1" height="1"/>
  <rect x="20" y="1" width="1" height="1"/>
  <rect x="21" y="1" width="1" height="1"/>
  <rect x="22" y="1" width="1" height="1"/>
  <rect x="23" y="1" width="1" height="1"/>
  <rect x="25" y="1" width="1" height="1"/>
  <rect x="26" y="1" width="1" height="1"/>
  <rect x="27" y="1" width="1" height="1"/>
  <rect x="28" y="1" width="1" height="1"/>
  <rect x="30" y="1" width="1" height="1"/>
  <rect x="16" y="2" width="1" height="1"/>
  <rect x="17" y="2" width="1" height="1"/>
  <rect x="19" y="2" width="1" height="1"/>
  <rect x="21" y="2" width="1" height="1"/>
  <rect x="24" y="2" width="1" height="1"/>
  <rect x="27" y="2" width="1" height="1"/>
  <rect x="29" y="2" width="1" height="1"/>
  <rect x="30" y="2" width="1" height="1"/>
  <rect x="31" y="2" width="1" height="1"/>
  <rect x="13" y="3" width="1" height="1"/>
  <rect x="14" y="3" width="1" height="1"/>
  <rect x="16" y="3" width="1" height="1"/>
  <rect x="20" y="3" width="1" height="1"/>
  <rect x="22" y="3" width="1" height="1"/>
  <rect x="23" y="3" width="1" height="1"/>
  <rect x="24" y="3" width="1" height="1"/>
  <rect x="29" y="3" width="1" height="1"/>
  <rect x="30" y="3" width="1" height="1"/>
  <rect x="32" y="3" width="1" height="1"/>
  <rect x="33" y="3" width="1" height="1"/>
  <rect x="34" y="3" width="1" height="1"/>
  <rect x="12" y="4" width="1" height="1"/>
  <rect x="13" y="4" width="1" height="1"/>
  <rect x="15" y="4" width="1" height="1"/>
  <rect x="19" y="4" width="1" height="1"/>
  <rect x="20" y="4" width="1" height="1"/>
  <rect x="22" y="4" width="1" height="1"/>
  <rect x="23" y="4" width="1" height="1"/>
  <rect x="25" y="4" width="1" height="1"/>
  <rect x="27" y="4" width="1" height="1"/>
  <rect x="29" y="4" width="1" height="1"/>
  <rect x="31" y="4" width="1" height="1"/>
  <rect x="33" y="4" width="1" height="1"/>
  <rect x="34" y="4" width="1" height="1"/>
  <rect x="35" y="4" width="1" height="1"/>
  <rect x="36" y="4" width="1" height="1"/>
  <rect x="10" y="5" width="1" height="1"/>
  <rect x="12" y="5" width="1" height="1"/>
  <rect x="14" y="5" width="1" height="1"/>
  <rect x="17" y="5" width="1" height="1"/>
  <rect x="18" y="5" width="1" height="1"/>
  <rect x="21" y="5" width="1" height="1"/>
  <rect x="22" y="5" width="1" height="1"/>
  <rect x="24" y="5" width="1" height="1"/>
  <rect x="26" y="5" width="1" height="1"/>
  <rect x="30" y="5" width="1" height="1"/>
  <rect x="35" y="5" width="1" height="1"/>
  <rect x="37" y="5" width="1" height="1"/>
  <rect x="8" y="6" width="1" height="1"/>
  <rect x="9" y="6" width="1" height="1"/>
  <rect x="11" y="6" width="1" height="1"/>
  <rect x="12" y="6" width="1" height="1"/>
  <rect x="14" y="6" width="1" height="1"/>
  <rect x="17" y="6" width="1" height="1"/>
  <rect x="18" y="6" width="1" height="1"/>
  <rect x="19" y="6" width="1" height="1"/>
  <rect x="20" y="6" width="1" height="1"/>
  <rect x="24" y="6" width="1" height="1"/>
  <rect x="25" y="6" width="1" height="1"/>
  <rect x="30" y="6" width="1" height="1"/>
  <rect x="31" y="6" width="1" height="1"/>
  <rect x="32" y="6" width="1" height="1"/>
  <rect x="34" y="6" width="1" height="1"/>
  <rect x="38" y="6" width="1" height="1"/>
  <rect x="39" y="6" width="1" height="1"/>
  <rect x="9" y="7" width="1" height="1"/>
  <rect x="13" y="7" width="1" height="1"/>
  <rect x="17" y="7" width="1" height="1"/>
  <rect x="18" y="7" width="1" height="1"/>
  <rect x="21" y="7" width="1" height="1"/>
  <rect x="23" y="7" width="1" height="1"/>
  <rect x="26" y="7" width="1" height="1"/>
  <rect x="27" y="7" width="1" height="1"/>
  <rect x="28" y="7" width="1" height="1"/>
  <rect x="30" y="7" width="1" height="1"/>
  <rect x="32" y="7" width="1" height="1"/>
  <rect x="33" y="7" width="1" height="1"/>
  <rect x="34" y="7" width="1" height="1"/>
  <rect x="35" y="7" width="1" height="1"/>
  <rect x="38" y="7" width="1" height="1"/>
  <rect x="6" y="8" width="1" height="1"/>
  <rect x="9" y="8" width="1" height="1"/>
  <rect x="11" y="8" width="1" height="1"/>
  <rect x="14" y="8" width="1" height="1"/>
  <rect x="16" y="8" width="1" height="1"/>
  <rect x="17" y="8" width="1" height="1"/>
  <rect x="18" y="8" width="1" height="1"/>
  <rect x="19" y="8" width="1" height="1"/>
  <rect x="20" y="8" width="1" height="1"/>
  <rect x="21" y="8" width="1" height="1"/>
  <rect x="22" y="8" width="1" height="1"/>
  <rect x="23" y="8" width="1" height="1"/>
  <rect x="24" y="8" width="1" height="1"/>
  <rect x="25" y="8" width="1" height="1"/>
  <rect x="26" y="8" width="1" height="1"/>
  <rect x="27" y="8" width="1" height="1"/>
  <rect x="28" y="8" width="1" height="1"/>
  <rect x="29" y="8" width="1" height="1"/>
  <rect x="30" y="8" width="1" height="1"/>
  <rect x="32" y="8" width="1" height="1"/>
  <rect x="33" y="8" width="1" height="1"/>
  <rect x="35" y="8" width="1" height="1"/>
  <rect x="39" y="8" width="1" height="1"/>
  <rect x="6" y="9" width="1" height="1"/>
  <rect x="7" y="9" width="1" height="1"/>
  <rect x="8" y="9" width="1" height="1"/>
  <rect x="12" y="9" width="1" height="1"/>
  <rect x="33" y="9" width="1" height="1"/>
  <rect x="34" y="9" width="1" height="1"/>
  <rect x="35" y="9" width="1" height="1"/>
  <rect x="39" y="9" width="1" height="1"/>
  <rect x="41" y="9" width="1" height="1"/>
  <rect x="5" y="10" width="1" height="1"/>
  <rect x="6" y="10" width="1" height="1"/>
  <rect x="7" y="10" width="1" height="1"/>
  <rect x="12" y="10" width="1" height="1"/>
  <rect x="33" y="10" width="1" height="1"/>
  <rect x="36" y="10" width="1" height="1"/>
  <rect x="38" y="10" width="1" height="1"/>
  <rect x="39" y="10" width="1" height="1"/>
  <rect x="41" y="10" width="1" height="1"/>
  <rect x="42" y="10" width="1" height="1"/>
  <rect x="4" y="11" width="1" height="1"/>
  <rect x="7" y="11" width="1" height="1"/>
  <rect x="11" y="11" width="1" height="1"/>
  <rect x="12" y="11" width="1" height="1"/>
  <rect x="33" y="11" width="1" height="1"/>
  <rect x="34" y="11" width="1" height="1"/>
  <rect x="35" y="11" width="1" height="1"/>
  <rect x="36" y="11" width="1" height="1"/>
  <rect x="39" y="11" width="1" height="1"/>
  <rect x="41" y="11" width="1" height="1"/>
  <rect x="43" y="11" width="1" height="1"/>
  <rect x="4" y="12" width="1" height="1"/>
  <rect x="5" y="12" width="1" height="1"/>
  <rect x="9" y="12" width="1" height="1"/>
  <rect x="10" y="12" width="1" height="1"/>
  <rect x="14" y="12" width="1" height="1"/>
  <rect x="33" y="12" width="1" height="1"/>
  <rect x="34" y="12" width="1" height="1"/>
  <rect x="37" y="12" width="1" height="1"/>
  <rect x="40" y="12" width="1" height="1"/>
  <rect x="7" y="13" width="1" height="1"/>
  <rect x="8" y="13" width="1" height="1"/>
  <rect x="11" y="13" width="1" height="1"/>
  <rect x="14" y="13" width="1" height="1"/>
  <rect x="33" y="13" width="1" height="1"/>
  <rect x="35" y="13" width="1" height="1"/>
  <rect x="37" y="13" width="1" height="1"/>
  <rect x="39" y="13" width="1" height="1"/>
  <rect x="42" y="13" width="1" height="1"/>
  <rect x="44" y="13" width="1" height="1"/>
  <rect x="6" y="14" width="1" height="1"/>
  <rect x="7" y="14" width="1" height="1"/>
  <rect x="10" y="14" width="1" height="1"/>
  <rect x="12" y="14" width="1" height="1"/>
  <rect x="13" y="14" width="1" height="1"/>
  <rect x="14" y="14" width="1" height="1"/>
  <rect x="34" y="14" width="1" height="1"/>
  <rect x="35" y="14" width="1" height="1"/>
  <rect x="36" y="14" width="1" height="1"/>
  <rect x="39" y="14" width="1" height="1"/>
  <rect x="41" y="14" width="1" height="1"/>
  <rect x="43" y="14" width="1" height="1"/>
  <rect x="44" y="14" width="1" height="1"/>
  <rect x="2" y="15" width="1" height="1"/>
  <rect x="5" y="15" width="1" height="1"/>
  <rect x="10" y="15" width="1" height="1"/>
  <rect x="14" y="15" width="1" height="1"/>
  <rect x="21" y="15" width="1" height="1"/>
  <rect x="22" y="15" width="1" height="1"/>
  <rect x="23" y="15" width="1" height="1"/>
  <rect x="24" y="15" width="1" height="1"/>
  <rect x="25" y="15" width="1" height="1"/>
  <rect x="26" y="15" width="1" height="1"/>
  <rect x="27" y="15" width="1" height="1"/>
  <rect x="28" y="15" width="1" height="1"/>
  <rect x="29" y="15" width="1" height="1"/>
  <rect x="31" y="15" width="1" height="1"/>
  <rect x="32" y="15" width="1" height="1"/>
  <rect x="35" y="15" width="1" height="1"/>
  <rect x="37" y="15" width="1" height="1"/>
  <rect x="38" y="15" width="1" height="1"/>
  <rect x="40" y="15" width="1" height="1"/>
  <rect x="41" y="15" width="1" height="1"/>
  <rect x="44" y="15" width="1" height="1"/>
  <rect x="45" y="15" width="1" height="1"/>
  <rect x="2" y="16" width="1" height="1"/>
  <rect x="3" y="16" width="1" height="1"/>
  <rect x="5" y="16" width="1" height="1"/>
  <rect x="6" y="16" width="1" height="1"/>
  <rect x="7" y="16" width="1" height="1"/>
  <rect x="8" y="16" width="1" height="1"/>
  <rect x="11" y="16" width="1" height="1"/>
  <rect x="12" y="16" width="1" height="1"/>
  <rect x="14" y="16" width="1" height="1"/>
  <rect x="21" y="16" width="1" height="1"/>
  <rect x="22" y="16" width="1" height="1"/>
  <rect x="26" y="16" width="1" height="1"/>
  <rect x="29" y="16" width="1" height="1"/>
  <rect x="34" y="16" width="1" height="1"/>
  <rect x="36" y="16" width="1" height="1"/>
  <rect x="37" y="16" width="1" height="1"/>
  <rect x="40" y="16" width="1" height="1"/>
  <rect x="42" y="16" width="1" height="1"/>
  <rect x="43" y="16" width="1" height="1"/>
  <rect x="44" y="16" width="1" height="1"/>
  <rect x="45" y="16" width="1" height="1"/>
  <rect x="1" y="17" width="1" height="1"/>
  <rect x="3" y="17" width="1" height="1"/>
  <rect x="4" y="17" width="1" height="1"/>
  <rect x="5" y="17" width="1" height="1"/>
  <rect x="8" y="17" width="1" height="1"/>
  <rect x="11" y="17" width="1" height="1"/>
  <rect x="14" y="17" width="1" height="1"/>
  <rect x="21" y="17" width="1" height="1"/>
  <rect x="23" y="17" width="1" height="1"/>
  <rect x="24" y="17" width="1" height="1"/>
  <rect x="25" y="17" width="1" height="1"/>
  <rect x="27" y="17" width="1" height="1"/>
  <rect x="31" y="17" width="1" height="1"/>
  <rect x="32" y="17" width="1" height="1"/>
  <rect x="33" y="17" width="1" height="1"/>
  <rect x="34" y="17" width="1" height="1"/>
  <rect x="39" y="17" width="1" height="1"/>
  <rect x="40" y="17" width="1" height="1"/>
  <rect x="46" y="17" width="1" height="1"/>
  <rect x="2" y="18" width="1" height="1"/>
  <rect x="3" y="18" width="1" height="1"/>
  <rect x="4" y="18" width="1" height="1"/>
  <rect x="5" y="18" width="1" height="1"/>
  <rect x="6" y="18" width="1" height="1"/>
  <rect x="9" y="18" width="1" height="1"/>
  <rect x="10" y="18" width="1" height="1"/>
  <rect x="12" y="18" width="1" height="1"/>
  <rect x="14" y="18" width="1" height="1"/>
  <rect x="22" y="18" width="1" height="1"/>
  <rect x="24" y="18" width="1" height="1"/>
  <rect x="25" y="18" width="1" height="1"/>
  <rect x="28" y="18" width="1" height="1"/>
  <rect x="29" y="18" width="1" height="1"/>
  <rect x="30" y="18" width="1" height="1"/>
  <rect x="32" y="18" width="1" height="1"/>
  <rect x="37" y="18" width="1" height="1"/>
  <rect x="38" y="18" width="1" height="1"/>
  <rect x="39" y="18" width="1" height="1"/>
  <rect x="41" y="18" width="1" height="1"/>
  <rect x="43" y="18" width="1" height="1"/>
  <rect x="44" y="18" width="1" height="1"/>
  <rect x="46" y="18" width="1" height="1"/>
  <rect x="1" y="19" width="1" height="1"/>
  <rect x="2" y="19" width="1" height="1"/>
  <rect x="5" y="19" width="1" height="1"/>
  <rect x="7" y="19" width="1" height="1"/>
  <rect x="9" y="19" width="1" height="1"/>
  <rect x="10" y="19" width="1" height="1"/>
  <rect x="12" y="19" width="1" height="1"/>
  <rect x="14" y="19" width="1" height="1"/>
  <rect x="22" y="19" width="1" height="1"/>
  <rect x="24" y="19" width="1" height="1"/>
  <rect x="28" y="19" width="1" height="1"/>
  <rect x="30" y="19" width="1" height="1"/>
  <rect x="31" y="19" width="1" height="1"/>
  <rect x="32" y="19" width="1" height="1"/>
  <rect x="33" y="19" width="1" height="1"/>
  <rect x="38" y="19" width="1" height="1"/>
  <rect x="41" y="19" width="1" height="1"/>
  <rect x="42" y="19" width="1" height="1"/>
  <rect x="43" y="19" width="1" height="1"/>
  <rect x="46" y="19" width="1" height="1"/>
  <rect x="1" y="20" width="1" height="1"/>
  <rect x="3" y="20" width="1" height="1"/>
  <rect x="4" y="20" width="1" height="1"/>
  <rect x="6" y="20" width="1" height="1"/>
  <rect x="21" y="20" width="1" height="1"/>
  <rect x="22" y="20" width="1" height="1"/>
  <rect x="23" y="20" width="1" height="1"/>
  <rect x="24" y="20" width="1" height="1"/>
  <rect x="25" y="20" width="1" height="1"/>
  <rect x="26" y="20" width="1" height="1"/>
  <rect x="28" y="20" width="1" height="1"/>
  <rect x="29" y="20" width="1" height="1"/>
  <rect x="30" y="20" width="1" height="1"/>
  <rect x="31" y="20" width="1" height="1"/>
  <rect x="33" y="20" width="1" height="1"/>
  <rect x="34" y="20" width="1" height="1"/>
  <rect x="38" y="20" width="1" height="1"/>
  <rect x="40" y="20" width="1" height="1"/>
  <rect x="41" y="20" width="1" height="1"/>
  <rect x="44" y="20" width="1" height="1"/>
  <rect x="45" y="20" width="1" height="1"/>
  <rect x="46" y="20" width="1" height="1"/>
  <rect x="1" y="21" width="1" height="1"/>
  <rect x="2" y="21" width="1" height="1"/>
  <rect x="3" y="21" width="1" height="1"/>
  <rect x="4" y="21" width="1" height="1"/>
  <rect x="5" y="21" width="1" height="1"/>
  <rect x="7" y="21" width="1" height="1"/>
  <rect x="9" y="21" width="1" height="1"/>
  <rect x="10" y="21" width="1" height="1"/>
  <rect x="12" y="21" width="1" height="1"/>
  <rect x="14" y="21" width="1" height="1"/>
  <rect x="30" y="21" width="1" height="1"/>
  <rect x="31" y="21" width="1" height="1"/>
  <rect x="36" y="21" width="1" height="1"/>
  <rect x="42" y="21" width="1" height="1"/>
  <rect x="44" y="21" width="1" height="1"/>
  <rect x="46" y="21" width="1" height="1"/>
  <rect x="3" y="22" width="1" height="1"/>
  <rect x="6" y="22" width="1" height="1"/>
  <rect x="7" y="22" width="1" height="1"/>
  <rect x="8" y="22" width="1" height="1"/>
  <rect x="9" y="22" width="1" height="1"/>
  <rect x="10" y="22" width="1" height="1"/>
  <rect x="11" y="22" width="1" height="1"/>
  <rect x="12" y="22" width="1" height="1"/>
  <rect x="13" y="22" width="1" height="1"/>
  <rect x="14" y="22" width="1" height="1"/>
  <rect x="30" y="22" width="1" height="1"/>
  <rect x="34" y="22" width="1" height="1"/>
  <rect x="35" y="22" width="1" height="1"/>
  <rect x="36" y="22" width="1" height="1"/>
  <rect x="37" y="22" width="1" height="1"/>
  <rect x="38" y="22" width="1" height="1"/>
  <rect x="39" y="22" width="1" height="1"/>
  <rect x="40" y="22" width="1" height="1"/>
  <rect x="41" y="22" width="1" height="1"/>
  <rect x="46" y="22" width="1" height="1"/>
  <rect x="2" y="23" width="1" height="1"/>
  <rect x="3" y="23" width="1" height="1"/>
  <rect x="9" y="23" width="1" height="1"/>
  <rect x="10" y="23" width="1" height="1"/>
  <rect x="11" y="23" width="1" height="1"/>
  <rect x="13" y="23" width="1" height="1"/>
  <rect x="14" y="23" width="1" height="1"/>
  <rect x="30" y="23" width="1" height="1"/>
  <rect x="32" y="23" width="1" height="1"/>
  <rect x="39" y="23" width="1" height="1"/>
  <rect x="40" y="23" width="1" height="1"/>
  <rect x="41" y="23" width="1" height="1"/>
  <rect x="42" y="23" width="1" height="1"/>
  <rect x="43" y="23" width="1" height="1"/>
  <rect x="45" y="23" width="1" height="1"/>
  <rect x="3" y="24" width="1" height="1"/>
  <rect x="4" y="24" width="1" height="1"/>
  <rect x="5" y="24" width="1" height="1"/>
  <rect x="6" y="24" width="1" height="1"/>
  <rect x="7" y="24" width="1" height="1"/>
  <rect x="8" y="24" width="1" height="1"/>
  <rect x="9" y="24" width="1" height="1"/>
  <rect x="10" y="24" width="1" height="1"/>
  <rect x="13" y="24" width="1" height="1"/>
  <rect x="30" y="24" width="1" height="1"/>
  <rect x="32" y="24" width="1" height="1"/>
  <rect x="34" y="24" width="1" height="1"/>
  <rect x="35" y="24" width="1" height="1"/>
  <rect x="37" y="24" width="1" height="1"/>
  <rect x="38" y="24" width="1" height="1"/>
  <rect x="39" y="24" width="1" height="1"/>
  <rect x="42" y="24" width="1" height="1"/>
  <rect x="46" y="24" width="1" height="1"/>
  <rect x="1" y="25" width="1" height="1"/>
  <rect x="2" y="25" width="1" height="1"/>
  <rect x="3" y="25" width="1" height="1"/>
  <rect x="4" y="25" width="1" height="1"/>
  <rect x="9" y="25" width="1" height="1"/>
  <rect x="13" y="25" width="1" height="1"/>
  <rect x="30" y="25" width="1" height="1"/>
  <rect x="33" y="25" width="1" height="1"/>
  <rect x="34" y="25" width="1" height="1"/>
  <rect x="37" y="25" width="1" height="1"/>
  <rect x="39" y="25" width="1" height="1"/>
  <rect x="44" y="25" width="1" height="1"/>
  <rect x="1" y="26" width="1" height="1"/>
  <rect x="2" y="26" width="1" height="1"/>
  <rect x="7" y="26" width="1" height="1"/>
  <rect x="9" y="26" width="1" height="1"/>
  <rect x="10" y="26" width="1" height="1"/>
  <rect x="12" y="26" width="1" height="1"/>
  <rect x="13" y="26" width="1" height="1"/>
  <rect x="14" y="26" width="1" height="1"/>
  <rect x="30" y="26" width="1" height="1"/>
  <rect x="32" y="26" width="1" height="1"/>
  <rect x="35" y="26" width="1" height="1"/>
  <rect x="37" y="26" width="1" height="1"/>
  <rect x="38" y="26" width="1" height="1"/>
  <rect x="39" y="26" width="1" height="1"/>
  <rect x="41" y="26" width="1" height="1"/>
  <rect x="45" y="26" width="1" height="1"/>
  <rect x="46" y="26" width="1" height="1"/>
  <rect x="1" y="27" width="1" height="1"/>
  <rect x="3" y="27" width="1" height="1"/>
  <rect x="7" y="27" width="1" height="1"/>
  <rect x="10" y="27" width="1" height="1"/>
  <rect x="12" y="27" width="1" height="1"/>
  <rect x="13" y="27" width="1" height="1"/>
  <rect x="14" y="27" width="1" height="1"/>
  <rect x="21" y="27" width="1" height="1"/>
  <rect x="22" y="27" width="1" height="1"/>
  <rect x="23" y="27" width="1" height="1"/>
  <rect x="24" y="27" width="1" height="1"/>
  <rect x="25" y="27" width="1" height="1"/>
  <rect x="26" y="27" width="1" height="1"/>
  <rect x="27" y="27" width="1" height="1"/>
  <rect x="28" y="27" width="1" height="1"/>
  <rect x="29" y="27" width="1" height="1"/>
  <rect x="30" y="27" width="1" height="1"/>
  <rect x="33" y="27" width="1" height="1"/>
  <rect x="34" y="27" width="1" height="1"/>
  <rect x="35" y="27" width="1" height="1"/>
  <rect x="36" y="27" width="1" height="1"/>
  <rect x="41" y="27" width="1" height="1"/>
  <rect x="46" y="27" width="1" height="1"/>
  <rect x="1" y="28" width="1" height="1"/>
  <rect x="3" y="28" width="1" height="1"/>
  <rect x="4" y="28" width="1" height="1"/>
  <rect x="6" y="28" width="1" height="1"/>
  <rect x="7" y="28" width="1" height="1"/>
  <rect x="10" y="28" width="1" height="1"/>
  <rect x="11" y="28" width="1" height="1"/>
  <rect x="12" y="28" width="1" height="1"/>
  <rect x="14" y="28" width="1" height="1"/>
  <rect x="21" y="28" width="1" height="1"/>
  <rect x="24" y="28" width="1" height="1"/>
  <rect x="26" y="28" width="1" height="1"/>
  <rect x="29" y="28" width="1" height="1"/>
  <rect x="31" y="28" width="1" height="1"/>
  <rect x="32" y="28" width="1" height="1"/>
  <rect x="34" y="28" width="1" height="1"/>
  <rect x="36" y="28" width="1" height="1"/>
  <rect x="38" y="28" width="1" height="1"/>
  <rect x="41" y="28" width="1" height="1"/>
  <rect x="43" y="28" width="1" height="1"/>
  <rect x="44" y="28" width="1" height="1"/>
  <rect x="45" y="28" width="1" height="1"/>
  <rect x="1" y="29" width="1" height="1"/>
  <rect x="7" y="29" width="1" height="1"/>
  <rect x="9" y="29" width="1" height="1"/>
  <rect x="11" y="29" width="1" height="1"/>
  <rect x="12" y="29" width="1" height="1"/>
  <rect x="13" y="29" width="1" height="1"/>
  <rect x="14" y="29" width="1" height="1"/>
  <rect x="21" y="29" width="1" height="1"/>
  <rect x="23" y="29" width="1" height="1"/>
  <rect x="24" y="29" width="1" height="1"/>
  <rect x="25" y="29" width="1" height="1"/>
  <rect x="27" y="29" width="1" height="1"/>
  <rect x="30" y="29" width="1" height="1"/>
  <rect x="32" y="29" width="1" height="1"/>
  <rect x="33" y="29" width="1" height="1"/>
  <rect x="34" y="29" width="1" height="1"/>
  <rect x="35" y="29" width="1" height="1"/>
  <rect x="38" y="29" width="1" height="1"/>
  <rect x="40" y="29" width="1" height="1"/>
  <rect x="41" y="29" width="1" height="1"/>
  <rect x="43" y="29" width="1" height="1"/>
  <rect x="44" y="29" width="1" height="1"/>
  <rect x="46" y="29" width="1" height="1"/>
  <rect x="1" y="30" width="1" height="1"/>
  <rect x="2" y="30" width="1" height="1"/>
  <rect x="4" y="30" width="1" height="1"/>
  <rect x="6" y="30" width="1" height="1"/>
  <rect x="9" y="30" width="1" height="1"/>
  <rect x="10" y="30" width="1" height="1"/>
  <rect x="11" y="30" width="1" height="1"/>
  <rect x="14" y="30" width="1" height="1"/>
  <rect x="21" y="30" width="1" height="1"/>
  <rect x="22" y="30" width="1" height="1"/>
  <rect x="25" y="30" width="1" height="1"/>
  <rect x="28" y="30" width="1" height="1"/>
  <rect x="29" y="30" width="1" height="1"/>
  <rect x="30" y="30" width="1" height="1"/>
  <rect x="31" y="30" width="1" height="1"/>
  <rect x="33" y="30" width="1" height="1"/>
  <rect x="35" y="30" width="1" height="1"/>
  <rect x="46" y="30" width="1" height="1"/>
  <rect x="2" y="31" width="1" height="1"/>
  <rect x="4" y="31" width="1" height="1"/>
  <rect x="5" y="31" width="1" height="1"/>
  <rect x="6" y="31" width="1" height="1"/>
  <rect x="7" y="31" width="1" height="1"/>
  <rect x="9" y="31" width="1" height="1"/>
  <rect x="12" y="31" width="1" height="1"/>
  <rect x="13" y="31" width="1" height="1"/>
  <rect x="21" y="31" width="1" height="1"/>
  <rect x="22" y="31" width="1" height="1"/>
  <rect x="24" y="31" width="1" height="1"/>
  <rect x="27" y="31" width="1" height="1"/>
  <rect x="29" y="31" width="1" height="1"/>
  <rect x="30" y="31" width="1" height="1"/>
  <rect x="32" y="31" width="1" height="1"/>
  <rect x="38" y="31" width="1" height="1"/>
  <rect x="40" y="31" width="1" height="1"/>
  <rect x="42" y="31" width="1" height="1"/>
  <rect x="43" y="31" width="1" height="1"/>
  <rect x="45" y="31" width="1" height="1"/>
  <rect x="2" y="32" width="1" height="1"/>
  <rect x="4" y="32" width="1" height="1"/>
  <rect x="5" y="32" width="1" height="1"/>
  <rect x="7" y="32" width="1" height="1"/>
  <rect x="10" y="32" width="1" height="1"/>
  <rect x="21" y="32" width="1" height="1"/>
  <rect x="22" y="32" width="1" height="1"/>
  <rect x="27" y="32" width="1" height="1"/>
  <rect x="30" y="32" width="1" height="1"/>
  <rect x="32" y="32" width="1" height="1"/>
  <rect x="34" y="32" width="1" height="1"/>
  <rect x="37" y="32" width="1" height="1"/>
  <rect x="38" y="32" width="1" height="1"/>
  <rect x="42" y="32" width="1" height="1"/>
  <rect x="45" y="32" width="1" height="1"/>
  <rect x="5" y="33" width="1" height="1"/>
  <rect x="8" y="33" width="1" height="1"/>
  <rect x="12" y="33" width="1" height="1"/>
  <rect x="13" y="33" width="1" height="1"/>
  <rect x="14" y="33" width="1" height="1"/>
  <rect x="21" y="33" width="1" height="1"/>
  <rect x="23" y="33" width="1" height="1"/>
  <rect x="24" y="33" width="1" height="1"/>
  <rect x="27" y="33" width="1" height="1"/>
  <rect x="28" y="33" width="1" height="1"/>
  <rect x="29" y="33" width="1" height="1"/>
  <rect x="31" y="33" width="1" height="1"/>
  <rect x="32" y="33" width="1" height="1"/>
  <rect x="33" y="33" width="1" height="1"/>
  <rect x="35" y="33" width="1" height="1"/>
  <rect x="37" y="33" width="1" height="1"/>
  <rect x="38" y="33" width="1" height="1"/>
  <rect x="41" y="33" width="1" height="1"/>
  <rect x="44" y="33" width="1" height="1"/>
  <rect x="3" y="34" width="1" height="1"/>
  <rect x="9" y="34" width="1" height="1"/>
  <rect x="10" y="34" width="1" height="1"/>
  <rect x="11" y="34" width="1" height="1"/>
  <rect x="12" y="34" width="1" height="1"/>
  <rect x="14" y="34" width="1" height="1"/>
  <rect x="24" y="34" width="1" height="1"/>
  <rect x="27" y="34" width="1" height="1"/>
  <rect x="33" y="34" width="1" height="1"/>
  <rect x="34" y="34" width="1" height="1"/>
  <rect x="35" y="34" width="1" height="1"/>
  <rect x="37" y="34" width="1" height="1"/>
  <rect x="39" y="34" width="1" height="1"/>
  <rect x="42" y="34" width="1" height="1"/>
  <rect x="44" y="34" width="1" height="1"/>
  <rect x="4" y="35" width="1" height="1"/>
  <rect x="6" y="35" width="1" height="1"/>
  <rect x="7" y="35" width="1" height="1"/>
  <rect x="8" y="35" width="1" height="1"/>
  <rect x="12" y="35" width="1" height="1"/>
  <rect x="13" y="35" width="1" height="1"/>
  <rect x="21" y="35" width="1" height="1"/>
  <rect x="23" y="35" width="1" height="1"/>
  <rect x="24" y="35" width="1" height="1"/>
  <rect x="25" y="35" width="1" height="1"/>
  <rect x="30" y="35" width="1" height="1"/>
  <rect x="31" y="35" width="1" height="1"/>
  <rect x="32" y="35" width="1" height="1"/>
  <rect x="34" y="35" width="1" height="1"/>
  <rect x="36" y="35" width="1" height="1"/>
  <rect x="39" y="35" width="1" height="1"/>
  <rect x="40" y="35" width="1" height="1"/>
  <rect x="41" y="35" width="1" height="1"/>
  <rect x="43" y="35" width="1" height="1"/>
  <rect x="4" y="36" width="1" height="1"/>
  <rect x="6" y="36" width="1" height="1"/>
  <rect x="8" y="36" width="1" height="1"/>
  <rect x="12" y="36" width="1" height="1"/>
  <rect x="13" y="36" width="1" height="1"/>
  <rect x="14" y="36" width="1" height="1"/>
  <rect x="21" y="36" width="1" height="1"/>
  <rect x="23" y="36" width="1" height="1"/>
  <rect x="26" y="36" width="1" height="1"/>
  <rect x="27" y="36" width="1" height="1"/>
  <rect x="28" y="36" width="1" height="1"/>
  <rect x="29" y="36" width="1" height="1"/>
  <rect x="30" y="36" width="1" height="1"/>
  <rect x="32" y="36" width="1" height="1"/>
  <rect x="37" y="36" width="1" height="1"/>
  <rect x="41" y="36" width="1" height="1"/>
  <rect x="43" y="36" width="1" height="1"/>
  <rect x="9" y="37" width="1" height="1"/>
  <rect x="12" y="37" width="1" height="1"/>
  <rect x="14" y="37" width="1" height="1"/>
  <rect x="21" y="37" width="1" height="1"/>
  <rect x="25" y="37" width="1" height="1"/>
  <rect x="28" y="37" width="1" height="1"/>
  <rect x="32" y="37" width="1" height="1"/>
  <rect x="34" y="37" width="1" height="1"/>
  <rect x="35" y="37" width="1" height="1"/>
  <rect x="36" y="37" width="1" height="1"/>
  <rect x="40" y="37" width="1" height="1"/>
  <rect x="42" y="37" width="1" height="1"/>
  <rect x="6" y="38" width="1" height="1"/>
  <rect x="7" y="38" width="1" height="1"/>
  <rect x="8" y="38" width="1" height="1"/>
  <rect x="9" y="38" width="1" height="1"/>
  <rect x="13" y="38" width="1" height="1"/>
  <rect x="14" y="38" width="1" height="1"/>
  <rect x="22" y="38" width="1" height="1"/>
  <rect x="23" y="38" width="1" height="1"/>
  <rect x="24" y="38" width="1" height="1"/>
  <rect x="25" y="38" width="1" height="1"/>
  <rect x="29" y="38" width="1" height="1"/>
  <rect x="31" y="38" width="1" height="1"/>
  <rect x="33" y="38" width="1" height="1"/>
  <rect x="34" y="38" width="1" height="1"/>
  <rect x="37" y="38" width="1" height="1"/>
  <rect x="39" y="38" width="1" height="1"/>
  <rect x="40" y="38" width="1" height="1"/>
  <rect x="41" y="38" width="1" height="1"/>
  <rect x="6" y="39" width="1" height="1"/>
  <rect x="15" y="39" width="1" height="1"/>
  <rect x="16" y="39" width="1" height="1"/>
  <rect x="17" y="39" width="1" height="1"/>
  <rect x="18" y="39" width="1" height="1"/>
  <rect x="19" y="39" width="1" height="1"/>
  <rect x="20" y="39" width="1" height="1"/>
  <rect x="21" y="39" width="1" height="1"/>
  <rect x="24" y="39" width="1" height="1"/>
  <rect x="25" y="39" width="1" height="1"/>
  <rect x="28" y="39" width="1" height="1"/>
  <rect x="29" y="39" width="1" height="1"/>
  <rect x="30" y="39" width="1" height="1"/>
  <rect x="32" y="39" width="1" height="1"/>
  <rect x="33" y="39" width="1" height="1"/>
  <rect x="35" y="39" width="1" height="1"/>
  <rect x="36" y="39" width="1" height="1"/>
  <rect x="37" y="39" width="1" height="1"/>
  <rect x="38" y="39" width="1" height="1"/>
  <rect x="41" y="39" width="1" height="1"/>
  <rect x="9" y="40" width="1" height="1"/>
  <rect x="10" y="40" width="1" height="1"/>
  <rect x="12" y="40" width="1" height="1"/>
  <rect x="14" y="40" width="1" height="1"/>
  <rect x="16" y="40" width="1" height="1"/>
  <rect x="24" y="40" width="1" height="1"/>
  <rect x="29" y="40" width="1" height="1"/>
  <rect x="34" y="40" width="1" height="1"/>
  <rect x="35" y="40" width="1" height="1"/>
  <rect x="36" y="40" width="1" height="1"/>
  <rect x="38" y="40" width="1" height="1"/>
  <rect x="9" y="41" width="1" height="1"/>
  <rect x="10" y="41" width="1" height="1"/>
  <rect x="12" y="41" width="1" height="1"/>
  <rect x="16" y="41" width="1" height="1"/>
  <rect x="17" y="41" width="1" height="1"/>
  <rect x="18" y="41" width="1" height="1"/>
  <rect x="20" y="41" width="1" height="1"/>
  <rect x="23" y="41" width="1" height="1"/>
  <rect x="26" y="41" width="1" height="1"/>
  <rect x="28" y="41" width="1" height="1"/>
  <rect x="29" y="41" width="1" height="1"/>
  <rect x="31" y="41" width="1" height="1"/>
  <rect x="32" y="41" width="1" height="1"/>
  <rect x="37" y="41" width="1" height="1"/>
  <rect x="38" y="41" width="1" height="1"/>
  <rect x="39" y="41" width="1" height="1"/>
  <rect x="10" y="42" width="1" height="1"/>
  <rect x="11" y="42" width="1" height="1"/>
  <rect x="13" y="42" width="1" height="1"/>
  <rect x="14" y="42" width="1" height="1"/>
  <rect x="16" y="42" width="1" height="1"/>
  <rect x="20" y="42" width="1" height="1"/>
  <rect x="24" y="42" width="1" height="1"/>
  <rect x="26" y="42" width="1" height="1"/>
  <rect x="29" y="42" width="1" height="1"/>
  <rect x="31" y="42" width="1" height="1"/>
  <rect x="33" y="42" width="1" height="1"/>
  <rect x="34" y="42" width="1" height="1"/>
  <rect x="37" y="42" width="1" height="1"/>
  <rect x="12" y="43" width="1" height="1"/>
  <rect x="17" y="43" width="1" height="1"/>
  <rect x="18" y="43" width="1" height="1"/>
  <rect x="19" y="43" width="1" height="1"/>
  <rect x="20" y="43" width="1" height="1"/>
  <rect x="22" y="43" width="1" height="1"/>
  <rect x="23" y="43" width="1" height="1"/>
  <rect x="27" y="43" width="1" height="1"/>
  <rect x="31" y="43" width="1" height="1"/>
  <rect x="32" y="43" width="1" height="1"/>
  <rect x="34" y="43" width="1" height="1"/>
  <rect x="35" y="43" width="1" height="1"/>
  <rect x="13" y="44" width="1" height="1"/>
  <rect x="14" y="44" width="1" height="1"/>
  <rect x="16" y="44" width="1" height="1"/>
  <rect x="20" y="44" width="1" height="1"/>
  <rect x="22" y="44" width="1" height="1"/>
  <rect x="25" y="44" width="1" height="1"/>
  <rect x="28" y="44" width="1" height="1"/>
  <rect x="29" y="44" width="1" height="1"/>
  <rect x="31" y="44" width="1" height="1"/>
  <rect x="33" y="44" width="1" height="1"/>
  <rect x="34" y="44" width="1" height="1"/>
  <rect x="15" y="45" width="1" height="1"/>
  <rect x="18" y="45" width="1" height="1"/>
  <rect x="20" y="45" width="1" height="1"/>
  <rect x="23" y="45" width="1" height="1"/>
  <rect x="25" y="45" width="1" height="1"/>
  <rect x="28" y="45" width="1" height="1"/>
  <rect x="29" y="45" width="1" height="1"/>
  <rect x="32" y="45" width="1" height="1"/>
  <rect x="17" y="46" width="1" height="1"/>
  <rect x="18" y="46" width="1" height="1"/>
  <rect x="21" y="46" width="1" height="1"/>
  <rect x="22" y="46" width="1" height="1"/>
  <rect x="23" y="46" width="1" height="1"/>
  <rect x="24" y="46" width="1" height="1"/>
  <rect x="25" y="46" width="1" height="1"/>
  <rect x="26" y="46" width="1" height="1"/>
  <rect x="27" y="46" width="1" height="1"/>
  <rect x="28" y="46" width="1" height="1"/>
  <rect x="29" y="46" width="1" height="1"/>
  <rect x="30" y="46" width="1" height="1"/>
</svg>
