<svg xmlns="http://www.w3.org/2000/svg"
     viewBox="0 0 72 72"
     width="72" height="72"
     shape-rendering="crispEdges" fill="#26c6da">
  <rect x="24" y="2" width="2" height="2"/>
  <rect x="26" y="2" width="2" height="2"/>
  <rect x="28" y="2" width="2" height="2"/>
  <rect x="30" y="2" width="2" height="2"/>
  <rect x="34" y="2" width="2" height="2"/>
  <rect x="36" y="2" width="2" height="2"/>
  <rect x="38" y="2" width="2" height="2"/>
  <rect x="40" y="2" width="2" height="2"/>
  <rect x="42" y="2" width="2" height="2"/>
  <rect x="44" y="2" width="2" height="2"/>
  <rect x="46" y="2" width="2" height="2"/>
  <rect x="20" y="4" width="2" height="2"/>
  <rect x="32" y="4" width="2" height="2"/>
  <rect x="36" y="4" width="2" height="2"/>
  <rect x="38" y="4" width="2" height="2"/>
  <rect x="42" y="4" width="2" height="2"/>
  <rect x="44" y="4" width="2" height="2"/>
  <rect x="48" y="4" width="2" height="2"/>
  <rect x="50" y="4" width="2" height="2"/>
  <rect x="16" y="6" width="2" height="2"/>
  <rect x="18" y="6" width="2" height="2"/>
  <rect x="24" y="6" width="2" height="2"/>
  <rect x="26" y="6" width="2" height="2"/>
  <rect x="34" y="6" width="2" height="2"/>
  <rect x="36" y="6" width="2" height="2"/>
  <rect x="48" y="6" width="2" height="2"/>
  <rect x="50" y="6" width="2" height="2"/>
  <rect x="52" y="6" width="2" height="2"/>
  <rect x="54" y="6" width="2" height="2"/>
  <rect x="14" y="8" width="2" height="2"/>
  <rect x="20" y="8" width="2" height="2"/>
  <rect x="26" y="8" width="2" height="2"/>
  <rect x="32" y="8" width="2" height="2"/>
  <rect x="36" y="8" width="2" height="2"/>
  <rect x="40" y="8" width="2" height="2"/>
  <rect x="44" y="8" width="2" height="2"/>
  <rect x="46" y="8" width="2" height="2"/>
  <rect x="48" y="8" width="2" height="2"/>
  <rect x="56" y="8" width="2" height="2"/>
  <rect x="12" y="10" width="2" height="2"/>
  <rect x="18" y="10" width="2" height="2"/>
  <rect x="20" y="10" width="2" height="2"/>
  <rect x="26" y="10" width="2" height="2"/>
  <rect x="32" y="10" width="2" height="2"/>
  <rect x="42" y="10" width="2" height="2"/>
  <rect x="44" y="10" width="2" height="2"/>
  <rect x="50" y="10" width="2" height="2"/>
  <rect x="52" y="10" width="2" height="2"/>
  <rect x="54" y="10" width="2" height="2"/>
  <rect x="58" y="10" width="2" height="2"/>
  <rect x="10" y="12" width="2" height="2"/>
  <rect x="14" y="12" width="2" height="2"/>
  <rect x="20" y="12" width="2" height="2"/>
  <rect x="24" y="12" width="2" height="2"/>
  <rect x="28" y="12" width="2" height="2"/>
  <rect x="34" y="12" width="2" height="2"/>
  <rect x="36" y="12" width="2" height="2"/>
  <rect x="38" y="12" width="2" height="2"/>
  <rect x="42" y="12" width="2" height="2"/>
  <rect x="48" y="12" width="2" height="2"/>
  <rect x="54" y="12" width="2" height="2"/>
  <rect x="58" y="12" width="2" height="2"/>
  <rect x="60" y="12" width="2" height="2"/>
  <rect x="8" y="14" width="2" height="2"/>
  <rect x="12" y="14" width="2" height="2"/>
  <rect x="14" y="14" width="2" height="2"/>
  <rect x="18" y="14" width="2" height="2"/>
  <rect x="20" y="14" width="2" height="2"/>
  <rect x="24" y="14" width="2" height="2"/>
  <rect x="28" y="14" width="2" height="2"/>
  <rect x="30" y="14" width="2" height="2"/>
  <rect x="32" y="14" width="2" height="2"/>
  <rect x="36" y="14" width="2" height="2"/>
  <rect x="38" y="14" width="2" height="2"/>
  <rect x="40" y="14" width="2" height="2"/>
  <rect x="42" y="14" width="2" height="2"/>
  <rect x="52" y="14" width="2" height="2"/>
  <rect x="54" y="14" width="2" height="2"/>
  <rect x="6" y="16" width="2" height="2"/>
  <rect x="8" y="16" width="2" height="2"/>
  <rect x="12" y="16" width="2" height="2"/>
  <rect x="16" y="16" width="2" height="2"/>
  <rect x="22" y="16" width="2" height="2"/>
  <rect x="48" y="16" width="2" height="2"/>
  <rect x="58" y="16" width="2" height="2"/>
  <rect x="60" y="16" width="2" height="2"/>
  <rect x="62" y="16" width="2" height="2"/>
  <rect x="12" y="18" width="2" height="2"/>
  <rect x="14" y="18" width="2" height="2"/>
  <rect x="16" y="18" width="2" height="2"/>
  <rect x="20" y="18" width="2" height="2"/>
  <rect x="22" y="18" width="2" height="2"/>
  <rect x="48" y="18" width="2" height="2"/>
  <rect x="52" y="18" width="2" height="2"/>
  <rect x="54" y="18" width="2" height="2"/>
  <rect x="56" y="18" width="2" height="2"/>
  <rect x="60" y="18" width="2" height="2"/>
  <rect x="62" y="18" width="2" height="2"/>
  <rect x="4" y="20" width="2" height="2"/>
  <rect x="10" y="20" width="2" height="2"/>
  <rect x="14" y="20" width="2" height="2"/>
  <rect x="18" y="20" width="2" height="2"/>
  <rect x="22" y="20" width="2" height="2"/>
  <rect x="48" y="20" width="2" height="2"/>
  <rect x="50" y="20" width="2" height="2"/>
  <rect x="58" y="20" width="2" height="2"/>
  <rect x="60" y="20" width="2" height="2"/>
  <rect x="66" y="20" width="2" height="2"/>
  <rect x="4" y="22" width="2" height="2"/>
  <rect x="6" y="22" width="2" height="2"/>
  <rect x="8" y="22" width="2" height="2"/>
  <rect x="12" y="22" width="2" height="2"/>
  <rect x="16" y="22" width="2" height="2"/>
  <rect x="18" y="22" width="2" height="2"/>
  <rect x="20" y="22" width="2" height="2"/>
  <rect x="22" y="22" width="2" height="2"/>
  <rect x="48" y="22" width="2" height="2"/>
  <rect x="56" y="22" width="2" height="2"/>
  <rect x="58" y="22" width="2" height="2"/>
  <rect x="62" y="22" width="2" height="2"/>
  <rect x="66" y="22" width="2" height="2"/>
  <rect x="2" y="24" width="2" height="2"/>
  <rect x="6" y="24" width="2" height="2"/>
  <rect x="8" y="24" width="2" height="2"/>
  <rect x="12" y="24" width="2" height="2"/>
  <rect x="18" y="24" width="2" height="2"/>
  <rect x="34" y="24" width="2" height="2"/>
  <rect x="36" y="24" width="2" height="2"/>
  <rect x="38" y="24" width="2" height="2"/>
  <rect x="40" y="24" width="2" height="2"/>
  <rect x="44" y="24" width="2" height="2"/>
  <rect x="48" y="24" width="2" height="2"/>
  <rect x="50" y="24" width="2" height="2"/>
  <rect x="52" y="24" width="2" height="2"/>
  <rect x="54" y="24" width="2" height="2"/>
  <rect x="62" y="24" width="2" height="2"/>
  <rect x="66" y="24" width="2" height="2"/>
  <rect x="68" y="24" width="2" height="2"/>
  <rect x="6" y="26" width="2" height="2"/>
  <rect x="14" y="26" width="2" height="2"/>
  <rect x="18" y="26" width="2" height="2"/>
  <rect x="32" y="26" width="2" height="2"/>
  <rect x="36" y="26" width="2" height="2"/>
  <rect x="42" y="26" width="2" height="2"/>
  <rect x="46" y="26" width="2" height="2"/>
  <rect x="54" y="26" width="2" height="2"/>
  <rect x="56" y="26" width="2" height="2"/>
  <rect x="64" y="26" width="2" height="2"/>
  <rect x="68" y="26" width="2" height="2"/>
  <rect x="2" y="28" width="2" height="2"/>
  <rect x="10" y="28" width="2" height="2"/>
  <rect x="22" y="28" width="2" height="2"/>
  <rect x="38" y="28" width="2" height="2"/>
  <rect x="42" y="28" width="2" height="2"/>
  <rect x="48" y="28" width="2" height="2"/>
  <rect x="50" y="28" width="2" height="2"/>
  <rect x="60" y="28" width="2" height="2"/>
  <rect x="64" y="28" width="2" height="2"/>
  <rect x="68" y="28" width="2" height="2"/>
  <rect x="2" y="30" width="2" height="2"/>
  <rect x="4" y="30" width="2" height="2"/>
  <rect x="6" y="30" width="2" height="2"/>
  <rect x="8" y="30" width="2" height="2"/>
  <rect x="10" y="30" width="2" height="2"/>
  <rect x="14" y="30" width="2" height="2"/>
  <rect x="22" y="30" width="2" height="2"/>
  <rect x="32" y="30" width="2" height="2"/>
  <rect x="34" y="30" width="2" height="2"/>
  <rect x="36" y="30" width="2" height="2"/>
  <rect x="38" y="30" width="2" height="2"/>
  <rect x="42" y="30" width="2" height="2"/>
  <rect x="46" y="30" width="2" height="2"/>
  <rect x="54" y="30" width="2" height="2"/>
  <rect x="56" y="30" width="2" height="2"/>
  <rect x="64" y="30" width="2" height="2"/>
  <rect x="66" y="30" width="2" height="2"/>
  <rect x="68" y="30" width="2" height="2"/>
  <rect x="2" y="32" width="2" height="2"/>
  <rect x="6" y="32" width="2" height="2"/>
  <rect x="16" y="32" width="2" height="2"/>
  <rect x="20" y="32" width="2" height="2"/>
  <rect x="22" y="32" width="2" height="2"/>
  <rect x="46" y="32" width="2" height="2"/>
  <rect x="50" y="32" width="2" height="2"/>
  <rect x="58" y="32" width="2" height="2"/>
  <rect x="60" y="32" width="2" height="2"/>
  <rect x="68" y="32" width="2" height="2"/>
  <rect x="6" y="34" width="2" height="2"/>
  <rect x="12" y="34" width="2" height="2"/>
  <rect x="18" y="34" width="2" height="2"/>
  <rect x="22" y="34" width="2" height="2"/>
  <rect x="44" y="34" width="2" height="2"/>
  <rect x="48" y="34" width="2" height="2"/>
  <rect x="50" y="34" width="2" height="2"/>
  <rect x="52" y="34" width="2" height="2"/>
  <rect x="54" y="34" width="2" height="2"/>
  <rect x="62" y="34" width="2" height="2"/>
  <rect x="64" y="34" width="2" height="2"/>
  <rect x="2" y="36" width="2" height="2"/>
  <rect x="4" y="36" width="2" height="2"/>
  <rect x="8" y="36" width="2" height="2"/>
  <rect x="10" y="36" width="2" height="2"/>
  <rect x="14" y="36" width="2" height="2"/>
  <rect x="18" y="36" width="2" height="2"/>
  <rect x="22" y="36" width="2" height="2"/>
  <rect x="44" y="36" width="2" height="2"/>
  <rect x="52" y="36" width="2" height="2"/>
  <rect x="54" y="36" width="2" height="2"/>
  <rect x="56" y="36" width="2" height="2"/>
  <rect x="60" y="36" width="2" height="2"/>
  <rect x="68" y="36" width="2" height="2"/>
  <rect x="4" y="38" width="2" height="2"/>
  <rect x="8" y="38" width="2" height="2"/>
  <rect x="10" y="38" width="2" height="2"/>
  <rect x="16" y="38" width="2" height="2"/>
  <rect x="18" y="38" width="2" height="2"/>
  <rect x="22" y="38" width="2" height="2"/>
  <rect x="44" y="38" width="2" height="2"/>
  <rect x="46" y="38" width="2" height="2"/>
  <rect x="50" y="38" width="2" height="2"/>
  <rect x="54" y="38" width="2" height="2"/>
  <rect x="60" y="38" width="2" height="2"/>
  <rect x="62" y="38" width="2" height="2"/>
  <rect x="68" y="38" width="2" height="2"/>
  <rect x="2" y="40" width="2" height="2"/>
  <rect x="12" y="40" width="2" height="2"/>
  <rect x="20" y="40" width="2" height="2"/>
  <rect x="22" y="40" width="2" height="2"/>
  <rect x="32" y="40" width="2" height="2"/>
  <rect x="34" y="40" width="2" height="2"/>
  <rect x="36" y="40" width="2" height="2"/>
  <rect x="38" y="40" width="2" height="2"/>
  <rect x="46" y="40" width="2" height="2"/>
  <rect x="48" y="40" width="2" height="2"/>
  <rect x="56" y="40" width="2" height="2"/>
  <rect x="58" y="40" width="2" height="2"/>
  <rect x="62" y="40" width="2" height="2"/>
  <rect x="64" y="40" width="2" height="2"/>
  <rect x="68" y="40" width="2" height="2"/>
  <rect x="4" y="42" width="2" height="2"/>
  <rect x="12" y="42" width="2" height="2"/>
  <rect x="16" y="42" width="2" height="2"/>
  <rect x="18" y="42" width="2" height="2"/>
  <rect x="22" y="42" width="2" height="2"/>
  <rect x="32" y="42" width="2" height="2"/>
  <rect x="36" y="42" width="2" height="2"/>
  <rect x="42" y="42" width="2" height="2"/>
  <rect x="44" y="42" width="2" height="2"/>
  <rect x="52" y="42" width="2" height="2"/>
  <rect x="60" y="42" width="2" height="2"/>
  <rect x="62" y="42" width="2" height="2"/>
  <rect x="64" y="42" width="2" height="2"/>
  <rect x="66" y="42" width="2" height="2"/>
  <rect x="68" y="42" width="2" height="2"/>
  <rect x="2" y="44" width="2" height="2"/>
  <rect x="4" y="44" width="2" height="2"/>
  <rect x="8" y="44" width="2" height="2"/>
  <rect x="10" y="44" width="2" height="2"/>
  <rect x="16" y="44" width="2" height="2"/>
  <rect x="20" y="44" width="2" height="2"/>
  <rect x="22" y="44" width="2" height="2"/>
  <rect x="32" y="44" width="2" height="2"/>
  <rect x="36" y="44" width="2" height="2"/>
  <rect x="46" y="44" width="2" height="2"/>
  <rect x="48" y="44" width="2" height="2"/>
  <rect x="50" y="44" width="2" height="2"/>
  <rect x="56" y="44" width="2" height="2"/>
  <rect x="62" y="44" width="2" height="2"/>
  <rect x="68" y="44" width="2" height="2"/>
  <rect x="2" y="46" width="2" height="2"/>
  <rect x="4" y="46" width="2" height="2"/>
  <rect x="10" y="46" width="2" height="2"/>
  <rect x="18" y="46" width="2" height="2"/>
  <rect x="20" y="46" width="2" height="2"/>
  <rect x="22" y="46" width="2" height="2"/>
  <rect x="32" y="46" width="2" height="2"/>
  <rect x="42" y="46" width="2" height="2"/>
  <rect x="44" y="46" width="2" height="2"/>
  <rect x="52" y="46" width="2" height="2"/>
  <rect x="56" y="46" width="2" height="2"/>
  <rect x="58" y="46" width="2" height="2"/>
  <rect x="64" y="46" width="2" height="2"/>
  <rect x="66" y="46" width="2" height="2"/>
  <rect x="68" y="46" width="2" height="2"/>
  <rect x="4" y="48" width="2" height="2"/>
  <rect x="6" y="48" width="2" height="2"/>
  <rect x="8" y="48" width="2" height="2"/>
  <rect x="12" y="48" width="2" height="2"/>
  <rect x="16" y="48" width="2" height="2"/>
  <rect x="18" y="48" width="2" height="2"/>
  <rect x="20" y="48" width="2" height="2"/>
  <rect x="22" y="48" width="2" height="2"/>
  <rect x="32" y="48" width="2" height="2"/>
  <rect x="34" y="48" width="2" height="2"/>
  <rect x="40" y="48" width="2" height="2"/>
  <rect x="42" y="48" width="2" height="2"/>
  <rect x="44" y="48" width="2" height="2"/>
  <rect x="48" y="48" width="2" height="2"/>
  <rect x="60" y="48" width="2" height="2"/>
  <rect x="62" y="48" width="2" height="2"/>
  <rect x="66" y="48" width="2" height="2"/>
  <rect x="12" y="50" width="2" height="2"/>
  <rect x="18" y="50" width="2" height="2"/>
  <rect x="22" y="50" width="2" height="2"/>
  <rect x="34" y="50" width="2" height="2"/>
  <rect x="36" y="50" width="2" height="2"/>
  <rect x="40" y="50" width="2" height="2"/>
  <rect x="44" y="50" width="2" height="2"/>
  <rect x="48" y="50" width="2" height="2"/>
  <rect x="50" y="50" width="2" height="2"/>
  <rect x="52" y="50" width="2" height="2"/>
  <rect x="58" y="50" width="2" height="2"/>
  <rect x="60" y="50" width="2" height="2"/>
  <rect x="64" y="50" width="2" height="2"/>
  <rect x="66" y="50" width="2" height="2"/>
  <rect x="8" y="52" width="2" height="2"/>
  <rect x="10" y="52" width="2" height="2"/>
  <rect x="14" y="52" width="2" height="2"/>
  <rect x="16" y="52" width="2" height="2"/>
  <rect x="18" y="52" width="2" height="2"/>
  <rect x="22" y="52" width="2" height="2"/>
  <rect x="32" y="52" width="2" height="2"/>
  <rect x="42" y="52" width="2" height="2"/>
  <rect x="44" y="52" width="2" height="2"/>
  <rect x="48" y="52" width="2" height="2"/>
  <rect x="64" y="52" width="2" height="2"/>
  <rect x="12" y="54" width="2" height="2"/>
  <rect x="14" y="54" width="2" height="2"/>
  <rect x="18" y="54" width="2" height="2"/>
  <rect x="20" y="54" width="2" height="2"/>
  <rect x="22" y="54" width="2" height="2"/>
  <rect x="32" y="54" width="2" height="2"/>
  <rect x="36" y="54" width="2" height="2"/>
  <rect x="42" y="54" width="2" height="2"/>
  <rect x="48" y="54" width="2" height="2"/>
  <rect x="50" y="54" width="2" height="2"/>
  <rect x="54" y="54" width="2" height="2"/>
  <rect x="56" y="54" width="2" height="2"/>
  <rect x="60" y="54" width="2" height="2"/>
  <rect x="62" y="54" width="2" height="2"/>
  <rect x="64" y="54" width="2" height="2"/>
  <rect x="16" y="56" width="2" height="2"/>
  <rect x="24" y="56" width="2" height="2"/>
  <rect x="26" y="56" width="2" height="2"/>
  <rect x="28" y="56" width="2" height="2"/>
  <rect x="30" y="56" width="2" height="2"/>
  <rect x="38" y="56" width="2" height="2"/>
  <rect x="42" y="56" width="2" height="2"/>
  <rect x="46" y="56" width="2" height="2"/>
  <rect x="52" y="56" width="2" height="2"/>
  <rect x="54" y="56" width="2" height="2"/>
  <rect x="56" y="56" width="2" height="2"/>
  <rect x="62" y="56" width="2" height="2"/>
  <rect x="16" y="58" width="2" height="2"/>
  <rect x="18" y="58" width="2" height="2"/>
  <rect x="20" y="58" width="2" height="2"/>
  <rect x="22" y="58" width="2" height="2"/>
  <rect x="24" y="58" width="2" height="2"/>
  <rect x="26" y="58" width="2" height="2"/>
  <rect x="30" y="58" width="2" height="2"/>
  <rect x="40" y="58" width="2" height="2"/>
  <rect x="48" y="58" width="2" height="2"/>
  <rect x="50" y="58" width="2" height="2"/>
  <rect x="12" y="60" width="2" height="2"/>
  <rect x="14" y="60" width="2" height="2"/>
  <rect x="18" y="60" width="2" height="2"/>
  <rect x="20" y="60" width="2" height="2"/>
  <rect x="22" y="60" width="2" height="2"/>
  <rect x="24" y="60" width="2" height="2"/>
  <rect x="26" y="60" width="2" height="2"/>
  <rect x="32" y="60" width="2" height="2"/>
  <rect x="36" y="60" width="2" height="2"/>
  <rect x="40" y="60" width="2" height="2"/>
  <rect x="44" y="60" width="2" height="2"/>
  <rect x="46" y="60" width="2" height="2"/>
  <rect x="48" y="60" width="2" height="2"/>
  <rect x="52" y="60" width="2" height="2"/>
  <rect x="54" y="60" width="2" height="2"/>
  <rect x="56" y="60" width="2" height="2"/>
  <rect x="58" y="60" width="2" height="2"/>
  <rect x="14" y="62" width="2" height="2"/>
  <rect x="18" y="62" width="2" height="2"/>
  <rect x="20" y="62" width="2" height="2"/>
  <rect x="28" y="62" width="2" height="2"/>
  <rect x="34" y="62" width="2" height="2"/>
  <rect x="36" y="62" width="2" height="2"/>
  <rect x="40" y="62" width="2" height="2"/>
  <rect x="50" y="62" width="2" height="2"/>
  <rect x="16" y="64" width="2" height="2"/>
  <rect x="26" y="64" width="2" height="2"/>
  <rect x="30" y="64" width="2" height="2"/>
  <rect x="40" y="64" width="2" height="2"/>
  <rect x="44" y="64" width="2" height="2"/>
  <rect x="46" y="64" width="2" height="2"/>
  <rect x="50" y="64" width="2" height="2"/>
  <rect x="52" y="64" width="2" height="2"/>
  <rect x="54" y="64" width="2" height="2"/>
  <rect x="20" y="66" width="2" height="2"/>
  <rect x="22" y="66" width="2" height="2"/>
  <rect x="26" y="66" width="2" height="2"/>
  <rect x="34" y="66" width="2" height="2"/>
  <rect x="40" y="66" width="2" height="2"/>
  <rect x="46" y="66" width="2" height="2"/>
  <rect x="48" y="66" width="2" height="2"/>
  <rect x="50" y="66" width="2" height="2"/>
  <rect x="24" y="68" width="2" height="2"/>
  <rect x="26" y="68" width="2" height="2"/>
  <rect x="28" y="68" width="2" height="2"/>
  <rect x="30" y="68" width="2" height="2"/>
  <rect x="32" y="68" width="2" height="2"/>
  <rect x="34" y="68" width="2" height="2"/>
  <rect x="38" y="68" width="2" height="2"/>
  <rect x="40" y="68" width="2" height="2"/>
  <rect x="42" y="68" width="2" height="2"/>
  <rect x="44" y="68" width="2" height="2"/>
  <rect x="46" y="68" width="2" height="2"/>
</svg>
