<svg xmlns="http://www.w3.org/2000/svg"
     viewBox="0 0 96 96"
     width="96" height="96"
     shape-rendering="crispEdges" fill="#26c6da">
  <rect x="34" y="2" width="2" height="2"/>
  <rect x="36" y="2" width="2" height="2"/>
  <rect x="38" y="2" width="2" height="2"/>
  <rect x="40" y="2" width="2" height="2"/>
  <rect x="42" y="2" width="2" height="2"/>
  <rect x="44" y="2" width="2" height="2"/>
  <rect x="46" y="2" width="2" height="2"/>
  <rect x="50" y="2" width="2" height="2"/>
  <rect x="52" y="2" width="2" height="2"/>
  <rect x="54" y="2" width="2" height="2"/>
  <rect x="56" y="2" width="2" height="2"/>
  <rect x="60" y="2" width="2" height="2"/>
  <rect x="32" y="4" width="2" height="2"/>
  <rect x="34" y="4" width="2" height="2"/>
  <rect x="38" y="4" width="2" height="2"/>
  <rect x="42" y="4" width="2" height="2"/>
  <rect x="48" y="4" width="2" height="2"/>
  <rect x="54" y="4" width="2" height="2"/>
  <rect x="58" y="4" width="2" height="2"/>
  <rect x="60" y="4" width="2" height="2"/>
  <rect x="62" y="4" width="2" height="2"/>
  <rect x="26" y="6" width="2" height="2"/>
  <rect x="28" y="6" width="2" height="2"/>
  <rect x="32" y="6" width="2" height="2"/>
  <rect x="40" y="6" width="2" height="2"/>
  <rect x="44" y="6" width="2" height="2"/>
  <rect x="46" y="6" width="2" height="2"/>
  <rect x="48" y="6" width="2" height="2"/>
  <rect x="58" y="6" width="2" height="2"/>
  <rect x="60" y="6" width="2" height="2"/>
  <rect x="64" y="6" width="2" height="2"/>
  <rect x="66" y="6" width="2" height="2"/>
  <rect x="68" y="6" width="2" height="2"/>
  <rect x="24" y="8" width="2" height="2"/>
  <rect x="26" y="8" width="2" height="2"/>
  <rect x="30" y="8" width="2" height="2"/>
  <rect x="38" y="8" width="2" height="2"/>
  <rect x="40" y="8" width="2" height="2"/>
  <rect x="44" y="8" width="2" height="2"/>
  <rect x="46" y="8" width="2" height="2"/>
  <rect x="50" y="8" width="2" height="2"/>
  <rect x="54" y="8" width="2" height="2"/>
  <rect x="58" y="8" width="2" height="2"/>
  <rect x="62" y="8" width="2" height="2"/>
  <rect x="66" y="8" width="2" height="2"/>
  <rect x="68" y="8" width="2" height="2"/>
  <rect x="70" y="8" width="2" height="2"/>
  <rect x="72" y="8" width="2" height="2"/>
  <rect x="20" y="10" width="2" height="2"/>
  <rect x="24" y="10" width="2" height="2"/>
  <rect x="28" y="10" width="2" height="2"/>
  <rect x="34" y="10" width="2" height="2"/>
  <rect x="36" y="10" width="2" height="2"/>
  <rect x="42" y="10" width="2" height="2"/>
  <rect x="44" y="10" width="2" height="2"/>
  <rect x="48" y="10" width="2" height="2"/>
  <rect x="52" y="10" width="2" height="2"/>
  <rect x="60" y="10" width="2" height="2"/>
  <rect x="70" y="10" width="2" height="2"/>
  <rect x="74" y="10" width="2" height="2"/>
  <rect x="16" y="12" width="2" height="2"/>
  <rect x="18" y="12" width="2" height="2"/>
  <rect x="22" y="12" width="2" height="2"/>
  <rect x="24" y="12" width="2" height="2"/>
  <rect x="28" y="12" width="2" height="2"/>
  <rect x="34" y="12" width="2" height="2"/>
  <rect x="36" y="12" width="2" height="2"/>
  <rect x="38" y="12" width="2" height="2"/>
  <rect x="40" y="12" width="2" height="2"/>
  <rect x="48" y="12" width="2" height="2"/>
  <rect x="50" y="12" width="2" height="2"/>
  <rect x="60" y="12" width="2" height="2"/>
  <rect x="62" y="12" width="2" height="2"/>
  <rect x="64" y="12" width="2" height="2"/>
  <rect x="68" y="12" width="2" height="2"/>
  <rect x="76" y="12" width="2" height="2"/>
  <rect x="78" y="12" width="2" height="2"/>
  <rect x="18" y="14" width="2" height="2"/>
  <rect x="26" y="14" width="2" height="2"/>
  <rect x="34" y="14" width="2" height="2"/>
  <rect x="36" y="14" width="2" height="2"/>
  <rect x="42" y="14" width="2" height="2"/>
  <rect x="46" y="14" width="2" height="2"/>
  <rect x="52" y="14" width="2" height="2"/>
  <rect x="54" y="14" width="2" height="2"/>
  <rect x="56" y="14" width="2" height="2"/>
  <rect x="60" y="14" width="2" height="2"/>
  <rect x="64" y="14" width="2" height="2"/>
  <rect x="66" y="14" width="2" height="2"/>
  <rect x="68" y="14" width="2" height="2"/>
  <rect x="70" y="14" width="2" height="2"/>
  <rect x="76" y="14" width="2" height="2"/>
  <rect x="12" y="16" width="2" height="2"/>
  <rect x="18" y="16" width="2" height="2"/>
  <rect x="22" y="16" width="2" height="2"/>
  <rect x="28" y="16" width="2" height="2"/>
  <rect x="32" y="16" width="2" height="2"/>
  <rect x="34" y="16" width="2" height="2"/>
  <rect x="36" y="16" width="2" height="2"/>
  <rect x="38" y="16" width="2" height="2"/>
  <rect x="40" y="16" width="2" height="2"/>
  <rect x="42" y="16" width="2" height="2"/>
  <rect x="44" y="16" width="2" height="2"/>
  <rect x="46" y="16" width="2" height="2"/>
  <rect x="48" y="16" width="2" height="2"/>
  <rect x="50" y="16" width="2" height="2"/>
  <rect x="52" y="16" width="2" height="2"/>
  <rect x="54" y="16" width="2" height="2"/>
  <rect x="56" y="16" width="2" height="2"/>
  <rect x="58" y="16" width="2" height="2"/>
  <rect x="60" y="16" width="2" height="2"/>
  <rect x="64" y="16" width="2" height="2"/>
  <rect x="66" y="16" width="2" height="2"/>
  <rect x="70" y="16" width="2" height="2"/>
  <rect x="78" y="16" width="2" height="2"/>
  <rect x="12" y="18" width="2" height="2"/>
  <rect x="14" y="18" width="2" height="2"/>
  <rect x="16" y="18" width="2" height="2"/>
  <rect x="24" y="18" width="2" height="2"/>
  <rect x="66" y="18" width="2" height="2"/>
  <rect x="68" y="18" width="2" height="2"/>
  <rect x="70" y="18" width="2" height="2"/>
  <rect x="78" y="18" width="2" height="2"/>
  <rect x="82" y="18" width="2" height="2"/>
  <rect x="10" y="20" width="2" height="2"/>
  <rect x="12" y="20" width="2" height="2"/>
  <rect x="14" y="20" width="2" height="2"/>
  <rect x="24" y="20" width="2" height="2"/>
  <rect x="66" y="20" width="2" height="2"/>
  <rect x="72" y="20" width="2" height="2"/>
  <rect x="76" y="20" width="2" height="2"/>
  <rect x="78" y="20" width="2" height="2"/>
  <rect x="82" y="20" width="2" height="2"/>
  <rect x="84" y="20" width="2" height="2"/>
  <rect x="8" y="22" width="2" height="2"/>
  <rect x="14" y="22" width="2" height="2"/>
  <rect x="22" y="22" width="2" height="2"/>
  <rect x="24" y="22" width="2" height="2"/>
  <rect x="66" y="22" width="2" height="2"/>
  <rect x="68" y="22" width="2" height="2"/>
  <rect x="70" y="22" width="2" height="2"/>
  <rect x="72" y="22" width="2" height="2"/>
  <rect x="78" y="22" width="2" height="2"/>
  <rect x="82" y="22" width="2" height="2"/>
  <rect x="86" y="22" width="2" height="2"/>
  <rect x="8" y="24" width="2" height="2"/>
  <rect x="10" y="24" width="2" height="2"/>
  <rect x="18" y="24" width="2" height="2"/>
  <rect x="20" y="24" width="2" height="2"/>
  <rect x="28" y="24" width="2" height="2"/>
  <rect x="66" y="24" width="2" height="2"/>
  <rect x="68" y="24" width="2" height="2"/>
  <rect x="74" y="24" width="2" height="2"/>
  <rect x="80" y="24" width="2" height="2"/>
  <rect x="14" y="26" width="2" height="2"/>
  <rect x="16" y="26" width="2" height="2"/>
  <rect x="22" y="26" width="2" height="2"/>
  <rect x="28" y="26" width="2" height="2"/>
  <rect x="66" y="26" width="2" height="2"/>
  <rect x="70" y="26" width="2" height="2"/>
  <rect x="74" y="26" width="2" height="2"/>
  <rect x="78" y="26" width="2" height="2"/>
  <rect x="84" y="26" width="2" height="2"/>
  <rect x="88" y="26" width="2" height="2"/>
  <rect x="12" y="28" width="2" height="2"/>
  <rect x="14" y="28" width="2" height="2"/>
  <rect x="20" y="28" width="2" height="2"/>
  <rect x="24" y="28" width="2" height="2"/>
  <rect x="26" y="28" width="2" height="2"/>
  <rect x="28" y="28" width="2" height="2"/>
  <rect x="68" y="28" width="2" height="2"/>
  <rect x="70" y="28" width="2" height="2"/>
  <rect x="72" y="28" width="2" height="2"/>
  <rect x="78" y="28" width="2" height="2"/>
  <rect x="82" y="28" width="2" height="2"/>
  <rect x="86" y="28" width="2" height="2"/>
  <rect x="88" y="28" width="2" height="2"/>
  <rect x="4" y="30" width="2" height="2"/>
  <rect x="10" y="30" width="2" height="2"/>
  <rect x="20" y="30" width="2" height="2"/>
  <rect x="28" y="30" width="2" height="2"/>
  <rect x="42" y="30" width="2" height="2"/>
  <rect x="44" y="30" width="2" height="2"/>
  <rect x="46" y="30" width="2" height="2"/>
  <rect x="48" y="30" width="2" height="2"/>
  <rect x="50" y="30" width="2" height="2"/>
  <rect x="52" y="30" width="2" height="2"/>
  <rect x="54" y="30" width="2" height="2"/>
  <rect x="56" y="30" width="2" height="2"/>
  <rect x="58" y="30" width="2" height="2"/>
  <rect x="62" y="30" width="2" height="2"/>
  <rect x="64" y="30" width="2" height="2"/>
  <rect x="70" y="30" width="2" height="2"/>
  <rect x="74" y="30" width="2" height="2"/>
  <rect x="76" y="30" width="2" height="2"/>
  <rect x="80" y="30" width="2" height="2"/>
  <rect x="82" y="30" width="2" height="2"/>
  <rect x="88" y="30" width="2" height="2"/>
  <rect x="90" y="30" width="2" height="2"/>
  <rect x="4" y="32" width="2" height="2"/>
  <rect x="6" y="32" width="2" height="2"/>
  <rect x="10" y="32" width="2" height="2"/>
  <rect x="12" y="32" width="2" height="2"/>
  <rect x="14" y="32" width="2" height="2"/>
  <rect x="16" y="32" width="2" height="2"/>
  <rect x="22" y="32" width="2" height="2"/>
  <rect x="24" y="32" width="2" height="2"/>
  <rect x="28" y="32" width="2" height="2"/>
  <rect x="42" y="32" width="2" height="2"/>
  <rect x="44" y="32" width="2" height="2"/>
  <rect x="52" y="32" width="2" height="2"/>
  <rect x="58" y="32" width="2" height="2"/>
  <rect x="68" y="32" width="2" height="2"/>
  <rect x="72" y="32" width="2" height="2"/>
  <rect x="74" y="32" width="2" height="2"/>
  <rect x="80" y="32" width="2" height="2"/>
  <rect x="84" y="32" width="2" height="2"/>
  <rect x="86" y="32" width="2" height="2"/>
  <rect x="88" y="32" width="2" height="2"/>
  <rect x="90" y="32" width="2" height="2"/>
  <rect x="2" y="34" width="2" height="2"/>
  <rect x="6" y="34" width="2" height="2"/>
  <rect x="8" y="34" width="2" height="2"/>
  <rect x="10" y="34" width="2" height="2"/>
  <rect x="16" y="34" width="2" height="2"/>
  <rect x="22" y="34" width="2" height="2"/>
  <rect x="28" y="34" width="2" height="2"/>
  <rect x="42" y="34" width="2" height="2"/>
  <rect x="46" y="34" width="2" height="2"/>
  <rect x="48" y="34" width="2" height="2"/>
  <rect x="50" y="34" width="2" height="2"/>
  <rect x="54" y="34" width="2" height="2"/>
  <rect x="62" y="34" width="2" height="2"/>
  <rect x="64" y="34" width="2" height="2"/>
  <rect x="66" y="34" width="2" height="2"/>
  <rect x="68" y="34" width="2" height="2"/>
  <rect x="78" y="34" width="2" height="2"/>
  <rect x="80" y="34" width="2" height="2"/>
  <rect x="92" y="34" width="2" height="2"/>
  <rect x="4" y="36" width="2" height="2"/>
  <rect x="6" y="36" width="2" height="2"/>
  <rect x="8" y="36" width="2" height="2"/>
  <rect x="10" y="36" width="2" height="2"/>
  <rect x="12" y="36" width="2" height="2"/>
  <rect x="18" y="36" width="2" height="2"/>
  <rect x="20" y="36" width="2" height="2"/>
  <rect x="24" y="36" width="2" height="2"/>
  <rect x="28" y="36" width="2" height="2"/>
  <rect x="44" y="36" width="2" height="2"/>
  <rect x="48" y="36" width="2" height="2"/>
  <rect x="50" y="36" width="2" height="2"/>
  <rect x="56" y="36" width="2" height="2"/>
  <rect x="58" y="36" width="2" height="2"/>
  <rect x="60" y="36" width="2" height="2"/>
  <rect x="64" y="36" width="2" height="2"/>
  <rect x="74" y="36" width="2" height="2"/>
  <rect x="76" y="36" width="2" height="2"/>
  <rect x="78" y="36" width="2" height="2"/>
  <rect x="82" y="36" width="2" height="2"/>
  <rect x="86" y="36" width="2" height="2"/>
  <rect x="88" y="36" width="2" height="2"/>
  <rect x="92" y="36" width="2" height="2"/>
  <rect x="2" y="38" width="2" height="2"/>
  <rect x="4" y="38" width="2" height="2"/>
  <rect x="10" y="38" width="2" height="2"/>
  <rect x="14" y="38" width="2" height="2"/>
  <rect x="18" y="38" width="2" height="2"/>
  <rect x="20" y="38" width="2" height="2"/>
  <rect x="24" y="38" width="2" height="2"/>
  <rect x="28" y="38" width="2" height="2"/>
  <rect x="44" y="38" width="2" height="2"/>
  <rect x="48" y="38" width="2" height="2"/>
  <rect x="56" y="38" width="2" height="2"/>
  <rect x="60" y="38" width="2" height="2"/>
  <rect x="62" y="38" width="2" height="2"/>
  <rect x="64" y="38" width="2" height="2"/>
  <rect x="66" y="38" width="2" height="2"/>
  <rect x="76" y="38" width="2" height="2"/>
  <rect x="82" y="38" width="2" height="2"/>
  <rect x="84" y="38" width="2" height="2"/>
  <rect x="86" y="38" width="2" height="2"/>
  <rect x="92" y="38" width="2" height="2"/>
  <rect x="2" y="40" width="2" height="2"/>
  <rect x="6" y="40" width="2" height="2"/>
  <rect x="8" y="40" width="2" height="2"/>
  <rect x="12" y="40" width="2" height="2"/>
  <rect x="42" y="40" width="2" height="2"/>
  <rect x="44" y="40" width="2" height="2"/>
  <rect x="46" y="40" width="2" height="2"/>
  <rect x="48" y="40" width="2" height="2"/>
  <rect x="50" y="40" width="2" height="2"/>
  <rect x="52" y="40" width="2" height="2"/>
  <rect x="56" y="40" width="2" height="2"/>
  <rect x="58" y="40" width="2" height="2"/>
  <rect x="60" y="40" width="2" height="2"/>
  <rect x="62" y="40" width="2" height="2"/>
  <rect x="66" y="40" width="2" height="2"/>
  <rect x="68" y="40" width="2" height="2"/>
  <rect x="76" y="40" width="2" height="2"/>
  <rect x="80" y="40" width="2" height="2"/>
  <rect x="82" y="40" width="2" height="2"/>
  <rect x="88" y="40" width="2" height="2"/>
  <rect x="90" y="40" width="2" height="2"/>
  <rect x="92" y="40" width="2" height="2"/>
  <rect x="2" y="42" width="2" height="2"/>
  <rect x="4" y="42" width="2" height="2"/>
  <rect x="6" y="42" width="2" height="2"/>
  <rect x="8" y="42" width="2" height="2"/>
  <rect x="10" y="42" width="2" height="2"/>
  <rect x="14" y="42" width="2" height="2"/>
  <rect x="18" y="42" width="2" height="2"/>
  <rect x="20" y="42" width="2" height="2"/>
  <rect x="24" y="42" width="2" height="2"/>
  <rect x="28" y="42" width="2" height="2"/>
  <rect x="60" y="42" width="2" height="2"/>
  <rect x="62" y="42" width="2" height="2"/>
  <rect x="72" y="42" width="2" height="2"/>
  <rect x="84" y="42" width="2" height="2"/>
  <rect x="88" y="42" width="2" height="2"/>
  <rect x="92" y="42" width="2" height="2"/>
  <rect x="6" y="44" width="2" height="2"/>
  <rect x="12" y="44" width="2" height="2"/>
  <rect x="14" y="44" width="2" height="2"/>
  <rect x="16" y="44" width="2" height="2"/>
  <rect x="18" y="44" width="2" height="2"/>
  <rect x="20" y="44" width="2" height="2"/>
  <rect x="22" y="44" width="2" height="2"/>
  <rect x="24" y="44" width="2" height="2"/>
  <rect x="26" y="44" width="2" height="2"/>
  <rect x="28" y="44" width="2" height="2"/>
  <rect x="60" y="44" width="2" height="2"/>
  <rect x="68" y="44" width="2" height="2"/>
  <rect x="70" y="44" width="2" height="2"/>
  <rect x="72" y="44" width="2" height="2"/>
  <rect x="74" y="44" width="2" height="2"/>
  <rect x="76" y="44" width="2" height="2"/>
  <rect x="78" y="44" width="2" height="2"/>
  <rect x="80" y="44" width="2" height="2"/>
  <rect x="82" y="44" width="2" height="2"/>
  <rect x="92" y="44" width="2" height="2"/>
  <rect x="4" y="46" width="2" height="2"/>
  <rect x="6" y="46" width="2" height="2"/>
  <rect x="18" y="46" width="2" height="2"/>
  <rect x="20" y="46" width="2" height="2"/>
  <rect x="22" y="46" width="2" height="2"/>
  <rect x="26" y="46" width="2" height="2"/>
  <rect x="28" y="46" width="2" height="2"/>
  <rect x="60" y="46" width="2" height="2"/>
  <rect x="64" y="46" width="2" height="2"/>
  <rect x="78" y="46" width="2" height="2"/>
  <rect x="80" y="46" width="2" height="2"/>
  <rect x="82" y="46" width="2" height="2"/>
  <rect x="84" y="46" width="2" height="2"/>
  <rect x="86" y="46" width="2" height="2"/>
  <rect x="90" y="46" width="2" height="2"/>
  <rect x="6" y="48" width="2" height="2"/>
  <rect x="8" y="48" width="2" height="2"/>
  <rect x="10" y="48" width="2" height="2"/>
  <rect x="12" y="48" width="2" height="2"/>
  <rect x="14" y="48" width="2" height="2"/>
  <rect x="16" y="48" width="2" height="2"/>
  <rect x="18" y="48" width="2" height="2"/>
  <rect x="20" y="48" width="2" height="2"/>
  <rect x="26" y="48" width="2" height="2"/>
  <rect x="60" y="48" width="2" height="2"/>
  <rect x="64" y="48" width="2" height="2"/>
  <rect x="68" y="48" width="2" height="2"/>
  <rect x="70" y="48" width="2" height="2"/>
  <rect x="74" y="48" width="2" height="2"/>
  <rect x="76" y="48" width="2" height="2"/>
  <rect x="78" y="48" width="2" height="2"/>
  <rect x="84" y="48" width="2" height="2"/>
  <rect x="92" y="48" width="2" height="2"/>
  <rect x="2" y="50" width="2" height="2"/>
  <rect x="4" y="50" width="2" height="2"/>
  <rect x="6" y="50" width="2" height="2"/>
  <rect x="8" y="50" width="2" height="2"/>
  <rect x="18" y="50" width="2" height="2"/>
  <rect x="26" y="50" width="2" height="2"/>
  <rect x="60" y="50" width="2" height="2"/>
  <rect x="66" y="50" width="2" height="2"/>
  <rect x="68" y="50" width="2" height="2"/>
  <rect x="74" y="50" width="2" height="2"/>
  <rect x="78" y="50" width="2" height="2"/>
  <rect x="88" y="50" width="2" height="2"/>
  <rect x="2" y="52" width="2" height="2"/>
  <rect x="4" y="52" width="2" height="2"/>
  <rect x="14" y="52" width="2" height="2"/>
  <rect x="18" y="52" width="2" height="2"/>
  <rect x="20" y="52" width="2" height="2"/>
  <rect x="24" y="52" width="2" height="2"/>
  <rect x="26" y="52" width="2" height="2"/>
  <rect x="28" y="52" width="2" height="2"/>
  <rect x="60" y="52" width="2" height="2"/>
  <rect x="64" y="52" width="2" height="2"/>
  <rect x="70" y="52" width="2" height="2"/>
  <rect x="74" y="52" width="2" height="2"/>
  <rect x="76" y="52" width="2" height="2"/>
  <rect x="78" y="52" width="2" height="2"/>
  <rect x="82" y="52" width="2" height="2"/>
  <rect x="90" y="52" width="2" height="2"/>
  <rect x="92" y="52" width="2" height="2"/>
  <rect x="2" y="54" width="2" height="2"/>
  <rect x="6" y="54" width="2" height="2"/>
  <rect x="14" y="54" width="2" height="2"/>
  <rect x="20" y="54" width="2" height="2"/>
  <rect x="24" y="54" width="2" height="2"/>
  <rect x="26" y="54" width="2" height="2"/>
  <rect x="28" y="54" width="2" height="2"/>
  <rect x="42" y="54" width="2" height="2"/>
  <rect x="44" y="54" width="2" height="2"/>
  <rect x="46" y="54" width="2" height="2"/>
  <rect x="48" y="54" width="2" height="2"/>
  <rect x="50" y="54" width="2" height="2"/>
  <rect x="52" y="54" width="2" height="2"/>
  <rect x="54" y="54" width="2" height="2"/>
  <rect x="56" y="54" width="2" height="2"/>
  <rect x="58" y="54" width="2" height="2"/>
  <rect x="60" y="54" width="2" height="2"/>
  <rect x="66" y="54" width="2" height="2"/>
  <rect x="68" y="54" width="2" height="2"/>
  <rect x="70" y="54" width="2" height="2"/>
  <rect x="72" y="54" width="2" height="2"/>
  <rect x="82" y="54" width="2" height="2"/>
  <rect x="92" y="54" width="2" height="2"/>
  <rect x="2" y="56" width="2" height="2"/>
  <rect x="6" y="56" width="2" height="2"/>
  <rect x="8" y="56" width="2" height="2"/>
  <rect x="12" y="56" width="2" height="2"/>
  <rect x="14" y="56" width="2" height="2"/>
  <rect x="20" y="56" width="2" height="2"/>
  <rect x="22" y="56" width="2" height="2"/>
  <rect x="24" y="56" width="2" height="2"/>
  <rect x="28" y="56" width="2" height="2"/>
  <rect x="42" y="56" width="2" height="2"/>
  <rect x="48" y="56" width="2" height="2"/>
  <rect x="52" y="56" width="2" height="2"/>
  <rect x="58" y="56" width="2" height="2"/>
  <rect x="62" y="56" width="2" height="2"/>
  <rect x="64" y="56" width="2" height="2"/>
  <rect x="68" y="56" width="2" height="2"/>
  <rect x="72" y="56" width="2" height="2"/>
  <rect x="76" y="56" width="2" height="2"/>
  <rect x="82" y="56" width="2" height="2"/>
  <rect x="86" y="56" width="2" height="2"/>
  <rect x="88" y="56" width="2" height="2"/>
  <rect x="90" y="56" width="2" height="2"/>
  <rect x="2" y="58" width="2" height="2"/>
  <rect x="14" y="58" width="2" height="2"/>
  <rect x="18" y="58" width="2" height="2"/>
  <rect x="22" y="58" width="2" height="2"/>
  <rect x="24" y="58" width="2" height="2"/>
  <rect x="26" y="58" width="2" height="2"/>
  <rect x="28" y="58" width="2" height="2"/>
  <rect x="42" y="58" width="2" height="2"/>
  <rect x="46" y="58" width="2" height="2"/>
  <rect x="48" y="58" width="2" height="2"/>
  <rect x="50" y="58" width="2" height="2"/>
  <rect x="54" y="58" width="2" height="2"/>
  <rect x="60" y="58" width="2" height="2"/>
  <rect x="64" y="58" width="2" height="2"/>
  <rect x="66" y="58" width="2" height="2"/>
  <rect x="68" y="58" width="2" height="2"/>
  <rect x="70" y="58" width="2" height="2"/>
  <rect x="76" y="58" width="2" height="2"/>
  <rect x="80" y="58" width="2" height="2"/>
  <rect x="82" y="58" width="2" height="2"/>
  <rect x="86" y="58" width="2" height="2"/>
  <rect x="88" y="58" width="2" height="2"/>
  <rect x="92" y="58" width="2" height="2"/>
  <rect x="2" y="60" width="2" height="2"/>
  <rect x="4" y="60" width="2" height="2"/>
  <rect x="8" y="60" width="2" height="2"/>
  <rect x="12" y="60" width="2" height="2"/>
  <rect x="18" y="60" width="2" height="2"/>
  <rect x="20" y="60" width="2" height="2"/>
  <rect x="22" y="60" width="2" height="2"/>
  <rect x="28" y="60" width="2" height="2"/>
  <rect x="42" y="60" width="2" height="2"/>
  <rect x="44" y="60" width="2" height="2"/>
  <rect x="50" y="60" width="2" height="2"/>
  <rect x="56" y="60" width="2" height="2"/>
  <rect x="58" y="60" width="2" height="2"/>
  <rect x="60" y="60" width="2" height="2"/>
  <rect x="62" y="60" width="2" height="2"/>
  <rect x="66" y="60" width="2" height="2"/>
  <rect x="70" y="60" width="2" height="2"/>
  <rect x="92" y="60" width="2" height="2"/>
  <rect x="4" y="62" width="2" height="2"/>
  <rect x="8" y="62" width="2" height="2"/>
  <rect x="10" y="62" width="2" height="2"/>
  <rect x="12" y="62" width="2" height="2"/>
  <rect x="14" y="62" width="2" height="2"/>
  <rect x="18" y="62" width="2" height="2"/>
  <rect x="24" y="62" width="2" height="2"/>
  <rect x="26" y="62" width="2" height="2"/>
  <rect x="42" y="62" width="2" height="2"/>
  <rect x="44" y="62" width="2" height="2"/>
  <rect x="48" y="62" width="2" height="2"/>
  <rect x="54" y="62" width="2" height="2"/>
  <rect x="58" y="62" width="2" height="2"/>
  <rect x="60" y="62" width="2" height="2"/>
  <rect x="64" y="62" width="2" height="2"/>
  <rect x="76" y="62" width="2" height="2"/>
  <rect x="80" y="62" width="2" height="2"/>
  <rect x="84" y="62" width="2" height="2"/>
  <rect x="86" y="62" width="2" height="2"/>
  <rect x="90" y="62" width="2" height="2"/>
  <rect x="4" y="64" width="2" height="2"/>
  <rect x="8" y="64" width="2" height="2"/>
  <rect x="10" y="64" width="2" height="2"/>
  <rect x="14" y="64" width="2" height="2"/>
  <rect x="20" y="64" width="2" height="2"/>
  <rect x="42" y="64" width="2" height="2"/>
  <rect x="44" y="64" width="2" height="2"/>
  <rect x="54" y="64" width="2" height="2"/>
  <rect x="60" y="64" width="2" height="2"/>
  <rect x="64" y="64" width="2" height="2"/>
  <rect x="68" y="64" width="2" height="2"/>
  <rect x="74" y="64" width="2" height="2"/>
  <rect x="76" y="64" width="2" height="2"/>
  <rect x="84" y="64" width="2" height="2"/>
  <rect x="90" y="64" width="2" height="2"/>
  <rect x="10" y="66" width="2" height="2"/>
  <rect x="16" y="66" width="2" height="2"/>
  <rect x="24" y="66" width="2" height="2"/>
  <rect x="26" y="66" width="2" height="2"/>
  <rect x="28" y="66" width="2" height="2"/>
  <rect x="42" y="66" width="2" height="2"/>
  <rect x="46" y="66" width="2" height="2"/>
  <rect x="48" y="66" width="2" height="2"/>
  <rect x="54" y="66" width="2" height="2"/>
  <rect x="56" y="66" width="2" height="2"/>
  <rect x="58" y="66" width="2" height="2"/>
  <rect x="62" y="66" width="2" height="2"/>
  <rect x="64" y="66" width="2" height="2"/>
  <rect x="66" y="66" width="2" height="2"/>
  <rect x="70" y="66" width="2" height="2"/>
  <rect x="74" y="66" width="2" height="2"/>
  <rect x="76" y="66" width="2" height="2"/>
  <rect x="82" y="66" width="2" height="2"/>
  <rect x="88" y="66" width="2" height="2"/>
  <rect x="6" y="68" width="2" height="2"/>
  <rect x="18" y="68" width="2" height="2"/>
  <rect x="20" y="68" width="2" height="2"/>
  <rect x="22" y="68" width="2" height="2"/>
  <rect x="24" y="68" width="2" height="2"/>
  <rect x="28" y="68" width="2" height="2"/>
  <rect x="48" y="68" width="2" height="2"/>
  <rect x="54" y="68" width="2" height="2"/>
  <rect x="66" y="68" width="2" height="2"/>
  <rect x="68" y="68" width="2" height="2"/>
  <rect x="70" y="68" width="2" height="2"/>
  <rect x="74" y="68" width="2" height="2"/>
  <rect x="78" y="68" width="2" height="2"/>
  <rect x="84" y="68" width="2" height="2"/>
  <rect x="88" y="68" width="2" height="2"/>
  <rect x="8" y="70" width="2" height="2"/>
  <rect x="12" y="70" width="2" height="2"/>
  <rect x="14" y="70" width="2" height="2"/>
  <rect x="16" y="70" width="2" height="2"/>
  <rect x="24" y="70" width="2" height="2"/>
  <rect x="26" y="70" width="2" height="2"/>
  <rect x="42" y="70" width="2" height="2"/>
  <rect x="46" y="70" width="2" height="2"/>
  <rect x="48" y="70" width="2" height="2"/>
  <rect x="50" y="70" width="2" height="2"/>
  <rect x="60" y="70" width="2" height="2"/>
  <rect x="62" y="70" width="2" height="2"/>
  <rect x="64" y="70" width="2" height="2"/>
  <rect x="68" y="70" width="2" height="2"/>
  <rect x="72" y="70" width="2" height="2"/>
  <rect x="78" y="70" width="2" height="2"/>
  <rect x="80" y="70" width="2" height="2"/>
  <rect x="82" y="70" width="2" height="2"/>
  <rect x="86" y="70" width="2" height="2"/>
  <rect x="8" y="72" width="2" height="2"/>
  <rect x="12" y="72" width="2" height="2"/>
  <rect x="16" y="72" width="2" height="2"/>
  <rect x="24" y="72" width="2" height="2"/>
  <rect x="26" y="72" width="2" height="2"/>
  <rect x="28" y="72" width="2" height="2"/>
  <rect x="42" y="72" width="2" height="2"/>
  <rect x="46" y="72" width="2" height="2"/>
  <rect x="52" y="72" width="2" height="2"/>
  <rect x="54" y="72" width="2" height="2"/>
  <rect x="56" y="72" width="2" height="2"/>
  <rect x="58" y="72" width="2" height="2"/>
  <rect x="60" y="72" width="2" height="2"/>
  <rect x="64" y="72" width="2" height="2"/>
  <rect x="74" y="72" width="2" height="2"/>
  <rect x="82" y="72" width="2" height="2"/>
  <rect x="86" y="72" width="2" height="2"/>
  <rect x="18" y="74" width="2" height="2"/>
  <rect x="24" y="74" width="2" height="2"/>
  <rect x="28" y="74" width="2" height="2"/>
  <rect x="42" y="74" width="2" height="2"/>
  <rect x="50" y="74" width="2" height="2"/>
  <rect x="56" y="74" width="2" height="2"/>
  <rect x="64" y="74" width="2" height="2"/>
  <rect x="68" y="74" width="2" height="2"/>
  <rect x="70" y="74" width="2" height="2"/>
  <rect x="72" y="74" width="2" height="2"/>
  <rect x="80" y="74" width="2" height="2"/>
  <rect x="84" y="74" width="2" height="2"/>
  <rect x="12" y="76" width="2" height="2"/>
  <rect x="14" y="76" width="2" height="2"/>
  <rect x="16" y="76" width="2" height="2"/>
  <rect x="18" y="76" width="2" height="2"/>
  <rect x="26" y="76" width="2" height="2"/>
  <rect x="28" y="76" width="2" height="2"/>
  <rect x="44" y="76" width="2" height="2"/>
  <rect x="46" y="76" width="2" height="2"/>
  <rect x="48" y="76" width="2" height="2"/>
  <rect x="50" y="76" width="2" height="2"/>
  <rect x="58" y="76" width="2" height="2"/>
  <rect x="62" y="76" width="2" height="2"/>
  <rect x="66" y="76" width="2" height="2"/>
  <rect x="68" y="76" width="2" height="2"/>
  <rect x="74" y="76" width="2" height="2"/>
  <rect x="78" y="76" width="2" height="2"/>
  <rect x="80" y="76" width="2" height="2"/>
  <rect x="82" y="76" width="2" height="2"/>
  <rect x="12" y="78" width="2" height="2"/>
  <rect x="30" y="78" width="2" height="2"/>
  <rect x="32" y="78" width="2" height="2"/>
  <rect x="34" y="78" width="2" height="2"/>
  <rect x="36" y="78" width="2" height="2"/>
  <rect x="38" y="78" width="2" height="2"/>
  <rect x="40" y="78" width="2" height="2"/>
  <rect x="42" y="78" width="2" height="2"/>
  <rect x="48" y="78" width="2" height="2"/>
  <rect x="50" y="78" width="2" height="2"/>
  <rect x="56" y="78" width="2" height="2"/>
  <rect x="58" y="78" width="2" height="2"/>
  <rect x="60" y="78" width="2" height="2"/>
  <rect x="64" y="78" width="2" height="2"/>
  <rect x="66" y="78" width="2" height="2"/>
  <rect x="70" y="78" width="2" height="2"/>
  <rect x="72" y="78" width="2" height="2"/>
  <rect x="74" y="78" width="2" height="2"/>
  <rect x="76" y="78" width="2" height="2"/>
  <rect x="82" y="78" width="2" height="2"/>
  <rect x="18" y="80" width="2" height="2"/>
  <rect x="20" y="80" width="2" height="2"/>
  <rect x="24" y="80" width="2" height="2"/>
  <rect x="28" y="80" width="2" height="2"/>
  <rect x="32" y="80" width="2" height="2"/>
  <rect x="48" y="80" width="2" height="2"/>
  <rect x="58" y="80" width="2" height="2"/>
  <rect x="68" y="80" width="2" height="2"/>
  <rect x="70" y="80" width="2" height="2"/>
  <rect x="72" y="80" width="2" height="2"/>
  <rect x="76" y="80" width="2" height="2"/>
  <rect x="18" y="82" width="2" height="2"/>
  <rect x="20" y="82" width="2" height="2"/>
  <rect x="24" y="82" width="2" height="2"/>
  <rect x="32" y="82" width="2" height="2"/>
  <rect x="34" y="82" width="2" height="2"/>
  <rect x="36" y="82" width="2" height="2"/>
  <rect x="40" y="82" width="2" height="2"/>
  <rect x="46" y="82" width="2" height="2"/>
  <rect x="52" y="82" width="2" height="2"/>
  <rect x="56" y="82" width="2" height="2"/>
  <rect x="58" y="82" width="2" height="2"/>
  <rect x="62" y="82" width="2" height="2"/>
  <rect x="64" y="82" width="2" height="2"/>
  <rect x="74" y="82" width="2" height="2"/>
  <rect x="76" y="82" width="2" height="2"/>
  <rect x="78" y="82" width="2" height="2"/>
  <rect x="20" y="84" width="2" height="2"/>
  <rect x="22" y="84" width="2" height="2"/>
  <rect x="26" y="84" width="2" height="2"/>
  <rect x="28" y="84" width="2" height="2"/>
  <rect x="32" y="84" width="2" height="2"/>
  <rect x="40" y="84" width="2" height="2"/>
  <rect x="48" y="84" width="2" height="2"/>
  <rect x="52" y="84" width="2" height="2"/>
  <rect x="58" y="84" width="2" height="2"/>
  <rect x="62" y="84" width="2" height="2"/>
  <rect x="66" y="84" width="2" height="2"/>
  <rect x="68" y="84" width="2" height="2"/>
  <rect x="74" y="84" width="2" height="2"/>
  <rect x="24" y="86" width="2" height="2"/>
  <rect x="34" y="86" width="2" height="2"/>
  <rect x="36" y="86" width="2" height="2"/>
  <rect x="38" y="86" width="2" height="2"/>
  <rect x="40" y="86" width="2" height="2"/>
  <rect x="44" y="86" width="2" height="2"/>
  <rect x="46" y="86" width="2" height="2"/>
  <rect x="54" y="86" width="2" height="2"/>
  <rect x="62" y="86" width="2" height="2"/>
  <rect x="64" y="86" width="2" height="2"/>
  <rect x="68" y="86" width="2" height="2"/>
  <rect x="70" y="86" width="2" height="2"/>
  <rect x="26" y="88" width="2" height="2"/>
  <rect x="28" y="88" width="2" height="2"/>
  <rect x="32" y="88" width="2" height="2"/>
  <rect x="40" y="88" width="2" height="2"/>
  <rect x="44" y="88" width="2" height="2"/>
  <rect x="50" y="88" width="2" height="2"/>
  <rect x="56" y="88" width="2" height="2"/>
  <rect x="58" y="88" width="2" height="2"/>
  <rect x="62" y="88" width="2" height="2"/>
  <rect x="66" y="88" width="2" height="2"/>
  <rect x="68" y="88" width="2" height="2"/>
  <rect x="30" y="90" width="2" height="2"/>
  <rect x="36" y="90" width="2" height="2"/>
  <rect x="40" y="90" width="2" height="2"/>
  <rect x="46" y="90" width="2" height="2"/>
  <rect x="50" y="90" width="2" height="2"/>
  <rect x="56" y="90" width="2" height="2"/>
  <rect x="58" y="90" width="2" height="2"/>
  <rect x="64" y="90" width="2" height="2"/>
  <rect x="34" y="92" width="2" height="2"/>
  <rect x="36" y="92" width="2" height="2"/>
  <rect x="42" y="92" width="2" height="2"/>
  <rect x="44" y="92" width="2" height="2"/>
  <rect x="46" y="92" width="2" height="2"/>
  <rect x="48" y="92" width="2" height="2"/>
  <rect x="50" y="92" width="2" height="2"/>
  <rect x="52" y="92" width="2" height="2"/>
  <rect x="54" y="92" width="2" height="2"/>
  <rect x="56" y="92" width="2" height="2"/>
  <rect x="58" y="92" width="2" height="2"/>
  <rect x="60" y="92" width="2" height="2"/>
</svg>
