<svg xmlns="http://www.w3.org/2000/svg" viewBox="0 0 1200 745" width="1200" height="745">
<defs>
  <radialGradient id="bg" cx="50%" cy="50%" r="50%">
    <stop offset="0%"   stop-color="#1a1a2e"/>
    <stop offset="100%" stop-color="#0d0d1a"/>
  </radialGradient>
</defs>
<style>
  .md-title { font: bold 15px system-ui,sans-serif; text-anchor: middle; }
  .md-sub   { font: 11px system-ui,sans-serif; text-anchor: middle; }
  .md-axis  { font: 11px system-ui,sans-serif; text-anchor: middle; fill: rgba(255,255,255,0.4); }
  .md-nl    { font: bold 13px system-ui,sans-serif; text-anchor: middle; }
  .md-ql    { font: 10px system-ui,sans-serif; text-anchor: middle; }
  .md-edge  { fill: none; }
</style>
<rect width="1200" height="745" fill="url(#bg)" rx="12"/>
<g transform="translate(0,-80)">
<text x="600" y="770" class="md-axis">← more dissimilar    Principal component 1    more similar →</text>
<text x="84" y="432.5" class="md-axis" transform="rotate(-90,84,432.5)">PC 2</text>
<line x1="893.0" y1="668.0" x2="992.9" y2="378.4" stroke="rgba(255,255,255,0.3)" stroke-width="6.0" opacity="0.55" class="md-edge"/>
<line x1="893.0" y1="668.0" x2="1008.0" y2="197.0" stroke="rgba(255,255,255,0.3)" stroke-width="5.0" opacity="0.48" class="md-edge"/>
<line x1="893.0" y1="668.0" x2="192.0" y2="244.5" stroke="rgba(255,255,255,0.3)" stroke-width="2.3" opacity="0.29" class="md-edge"/>
<line x1="893.0" y1="668.0" x2="530.5" y2="467.5" stroke="rgba(255,255,255,0.3)" stroke-width="6.0" opacity="0.55" class="md-edge"/>
<line x1="893.0" y1="668.0" x2="414.2" y2="590.9" stroke="rgba(255,255,255,0.3)" stroke-width="5.0" opacity="0.48" class="md-edge"/>
<line x1="992.9" y1="378.4" x2="1008.0" y2="197.0" stroke="rgba(255,255,255,0.3)" stroke-width="6.0" opacity="0.55" class="md-edge"/>
<line x1="992.9" y1="378.4" x2="192.0" y2="244.5" stroke="rgba(255,255,255,0.3)" stroke-width="2.3" opacity="0.29" class="md-edge"/>
<line x1="992.9" y1="378.4" x2="530.5" y2="467.5" stroke="rgba(255,255,255,0.3)" stroke-width="4.4" opacity="0.43" class="md-edge"/>
<line x1="992.9" y1="378.4" x2="414.2" y2="590.9" stroke="rgba(255,255,255,0.3)" stroke-width="3.5" opacity="0.37" class="md-edge"/>
<line x1="1008.0" y1="197.0" x2="192.0" y2="244.5" stroke="rgba(255,255,255,0.3)" stroke-width="2.3" opacity="0.29" class="md-edge"/>
<line x1="1008.0" y1="197.0" x2="530.5" y2="467.5" stroke="rgba(255,255,255,0.3)" stroke-width="4.0" opacity="0.41" class="md-edge"/>
<line x1="1008.0" y1="197.0" x2="414.2" y2="590.9" stroke="rgba(255,255,255,0.3)" stroke-width="3.0" opacity="0.33" class="md-edge"/>
<line x1="192.0" y1="244.5" x2="530.5" y2="467.5" stroke="rgba(255,255,255,0.3)" stroke-width="5.8" opacity="0.54" class="md-edge"/>
<line x1="192.0" y1="244.5" x2="414.2" y2="590.9" stroke="rgba(255,255,255,0.3)" stroke-width="5.8" opacity="0.54" class="md-edge"/>
<line x1="530.5" y1="467.5" x2="414.2" y2="590.9" stroke="rgba(255,255,255,0.3)" stroke-width="7.0" opacity="0.62" class="md-edge"/>
<circle cx="893.0" cy="668.0" r="62" fill="#f5c05a" stroke="rgba(255,255,255,0.25)" stroke-width="1.5" opacity="0.92"/>
<text x="893.0" y="646.5" class="md-nl" fill="#fff">Basketball</text>
<line x1="858.9" y1="661.5" x2="927.1" y2="661.5" stroke="rgba(255,255,255,0.3)" stroke-width="0.8"/>
<text x="893.0" y="665.5" class="md-ql" fill="#fff">Character identity</text>
<text x="893.0" y="677.5" class="md-ql" fill="#fff">Social vocab</text>
<text x="893.0" y="689.5" class="md-ql" fill="#fff">Power fantasy</text>
<text x="893.0" y="701.5" class="md-ql" fill="#fff">Progression</text>
<circle cx="992.9" cy="378.4" r="62" fill="#7aacf0" stroke="rgba(255,255,255,0.25)" stroke-width="1.5" opacity="0.92"/>
<text x="992.9" y="362.9" class="md-nl" fill="#fff">RPG</text>
<line x1="958.8" y1="377.9" x2="1027.0" y2="377.9" stroke="rgba(255,255,255,0.3)" stroke-width="0.8"/>
<text x="992.9" y="381.9" class="md-ql" fill="#fff">Exploration</text>
<text x="992.9" y="393.9" class="md-ql" fill="#fff">Narrative</text>
<text x="992.9" y="405.9" class="md-ql" fill="#fff">Character identity</text>
<circle cx="1008.0" cy="197.0" r="62" fill="#f07ab0" stroke="rgba(255,255,255,0.25)" stroke-width="1.5" opacity="0.92"/>
<text x="1008.0" y="181.5" class="md-nl" fill="#fff">Pokémon</text>
<line x1="973.9" y1="196.5" x2="1042.1" y2="196.5" stroke="rgba(255,255,255,0.3)" stroke-width="0.8"/>
<text x="1008.0" y="200.5" class="md-ql" fill="#fff">Collection drive</text>
<text x="1008.0" y="212.5" class="md-ql" fill="#fff">Exploration</text>
<text x="1008.0" y="224.5" class="md-ql" fill="#fff">Character identity</text>
<circle cx="192.0" cy="244.5" r="62" fill="#70d490" stroke="rgba(255,255,255,0.25)" stroke-width="1.5" opacity="0.92"/>
<text x="192.0" y="229.0" class="md-nl" fill="#fff">City Building</text>
<line x1="157.9" y1="244.0" x2="226.1" y2="244.0" stroke="rgba(255,255,255,0.3)" stroke-width="0.8"/>
<text x="192.0" y="248.0" class="md-ql" fill="#fff">Strategic depth</text>
<text x="192.0" y="260.0" class="md-ql" fill="#fff">Emergence</text>
<text x="192.0" y="272.0" class="md-ql" fill="#fff">Replayability</text>
<circle cx="530.5" cy="467.5" r="62" fill="#b898f0" stroke="rgba(255,255,255,0.25)" stroke-width="1.5" opacity="0.92"/>
<text x="530.5" y="452.0" class="md-nl" fill="#fff">Roguelite</text>
<line x1="496.4" y1="467.0" x2="564.6" y2="467.0" stroke="rgba(255,255,255,0.3)" stroke-width="0.8"/>
<text x="530.5" y="471.0" class="md-ql" fill="#fff">Risk/reward</text>
<text x="530.5" y="483.0" class="md-ql" fill="#fff">Session flex</text>
<text x="530.5" y="495.0" class="md-ql" fill="#fff">Emergence</text>
<circle cx="414.2" cy="590.9" r="62" fill="#f07070" stroke="rgba(255,255,255,0.25)" stroke-width="1.5" opacity="0.92"/>
<text x="414.2" y="575.4" class="md-nl" fill="#fff">Deck Building</text>
<line x1="380.1" y1="590.4" x2="448.3" y2="590.4" stroke="rgba(255,255,255,0.3)" stroke-width="0.8"/>
<text x="414.2" y="594.4" class="md-ql" fill="#fff">Risk/reward</text>
<text x="414.2" y="606.4" class="md-ql" fill="#fff">Session flex</text>
<text x="414.2" y="618.4" class="md-ql" fill="#fff">Strategic depth</text>
</g>
</svg>
